<?xml version="1.0" encoding="us-ascii" standalone="no"?><svg xmlns="http://www.w3.org/2000/svg" xmlns:xlink="http://www.w3.org/1999/xlink" contentStyleType="text/css" height="286px" preserveAspectRatio="none" style="width:315px;height:286px;background:#FFFFFF;" version="1.1" viewBox="0 0 315 286" width="315px" zoomAndPan="magnify"><defs/><g><!--class Entity01--><g id="elem_Entity01"><rect codeLine="7" fill="#F1F1F1" height="96.8906" id="Entity01" rx="6" ry="6" style="stroke:#181818;stroke-width:0.5;" width="146" x="84.5" y="164"/><ellipse cx="125.6" cy="180" fill="#ADD1B2" rx="11" ry="11" style="stroke:#181818;stroke-width:1.0;"/><path d="M125.5375,175.8281 Q124.7875,175.8281 124.225,176.125 Q123.6625,176.4063 123.2719,176.9375 Q122.8813,177.4688 122.6781,178.25 Q122.4906,179.0156 122.4906,179.9688 Q122.4906,180.9375 122.6625,181.7031 Q122.85,182.4531 123.2094,182.9688 Q123.5844,183.4844 124.1625,183.7656 Q124.7406,184.0313 125.5375,184.0313 Q126.2719,184.0313 127.0063,183.8594 Q127.7563,183.6875 128.6313,183.3906 L128.6313,185.5469 Q128.225,185.7031 127.8344,185.8281 Q127.4438,185.9375 127.0375,186.0156 Q126.6313,186.0938 126.2094,186.125 Q125.7875,186.1719 125.2875,186.1719 Q123.8813,186.1719 122.85,185.7188 Q121.8344,185.2656 121.1625,184.4531 Q120.4906,183.6406 120.1625,182.5 Q119.8344,181.3438 119.8344,179.9531 Q119.8344,178.5781 120.2094,177.4219 Q120.5844,176.2656 121.3031,175.4375 Q122.0219,174.6094 123.0844,174.1563 Q124.1469,173.6875 125.5375,173.6875 Q126.4438,173.6875 127.35,173.9219 Q128.2563,174.1406 129.0844,174.5469 L128.2563,176.6406 Q127.5688,176.3125 126.8813,176.0781 Q126.1938,175.8281 125.5375,175.8281 Z " fill="#000000"/><text fill="#000000" font-family="Serif" font-size="14" lengthAdjust="spacing" textLength="56" x="145.4" y="184.8467">Entity01</text><line style="stroke:#181818;stroke-width:0.5;" x1="85.5" x2="229.5" y1="196" y2="196"/><text fill="#000000" font-family="Serif" font-size="14" lengthAdjust="spacing" textLength="110" x="90.5" y="212.9951">description: text</text><text fill="#000000" font-family="Serif" font-size="14" lengthAdjust="spacing" textLength="61" x="90.5" y="229.292">e1_id: int</text><line style="stroke:#181818;stroke-width:0.5;" x1="85.5" x2="229.5" y1="236.5938" y2="236.5938"/><text fill="#000000" font-family="Serif" font-size="14" lengthAdjust="spacing" textLength="134" x="90.5" y="253.5889">name: varchar(100)</text></g><!--class Entity02--><g id="elem_Entity02"><rect codeLine="12" fill="#F1F1F1" height="96.8906" id="Entity02" rx="6" ry="6" style="stroke:#181818;stroke-width:0.5;" width="133" x="7" y="7"/><ellipse cx="42.25" cy="23" fill="#ADD1B2" rx="11" ry="11" style="stroke:#181818;stroke-width:1.0;"/><path d="M42.1875,18.8281 Q41.4375,18.8281 40.875,19.125 Q40.3125,19.4063 39.9219,19.9375 Q39.5313,20.4688 39.3281,21.25 Q39.1406,22.0156 39.1406,22.9688 Q39.1406,23.9375 39.3125,24.7031 Q39.5,25.4531 39.8594,25.9688 Q40.2344,26.4844 40.8125,26.7656 Q41.3906,27.0313 42.1875,27.0313 Q42.9219,27.0313 43.6563,26.8594 Q44.4063,26.6875 45.2813,26.3906 L45.2813,28.5469 Q44.875,28.7031 44.4844,28.8281 Q44.0938,28.9375 43.6875,29.0156 Q43.2813,29.0938 42.8594,29.125 Q42.4375,29.1719 41.9375,29.1719 Q40.5313,29.1719 39.5,28.7188 Q38.4844,28.2656 37.8125,27.4531 Q37.1406,26.6406 36.8125,25.5 Q36.4844,24.3438 36.4844,22.9531 Q36.4844,21.5781 36.8594,20.4219 Q37.2344,19.2656 37.9531,18.4375 Q38.6719,17.6094 39.7344,17.1563 Q40.7969,16.6875 42.1875,16.6875 Q43.0938,16.6875 44,16.9219 Q44.9063,17.1406 45.7344,17.5469 L44.9063,19.6406 Q44.2188,19.3125 43.5313,19.0781 Q42.8438,18.8281 42.1875,18.8281 Z " fill="#000000"/><text fill="#000000" font-family="Serif" font-size="14" lengthAdjust="spacing" textLength="56" x="60.75" y="27.8467">Entity02</text><line style="stroke:#181818;stroke-width:0.5;" x1="8" x2="139" y1="39" y2="39"/><text fill="#000000" font-family="Serif" font-size="14" lengthAdjust="spacing" textLength="61" x="13" y="55.9951">e1_id: int</text><text fill="#000000" font-family="Serif" font-size="14" lengthAdjust="spacing" textLength="121" x="13" y="72.292">other_details: text</text><text fill="#000000" font-family="Serif" font-size="14" lengthAdjust="spacing" textLength="61" x="13" y="88.5889">e2_id: int</text><line style="stroke:#181818;stroke-width:0.5;" x1="8" x2="139" y1="95.8906" y2="95.8906"/></g><!--class Entity03--><g id="elem_Entity03"><rect codeLine="17" fill="#F1F1F1" height="96.8906" id="Entity03" rx="6" ry="6" style="stroke:#181818;stroke-width:0.5;" width="133" x="175" y="7"/><ellipse cx="210.25" cy="23" fill="#ADD1B2" rx="11" ry="11" style="stroke:#181818;stroke-width:1.0;"/><path d="M210.1875,18.8281 Q209.4375,18.8281 208.875,19.125 Q208.3125,19.4063 207.9219,19.9375 Q207.5313,20.4688 207.3281,21.25 Q207.1406,22.0156 207.1406,22.9688 Q207.1406,23.9375 207.3125,24.7031 Q207.5,25.4531 207.8594,25.9688 Q208.2344,26.4844 208.8125,26.7656 Q209.3906,27.0313 210.1875,27.0313 Q210.9219,27.0313 211.6563,26.8594 Q212.4063,26.6875 213.2813,26.3906 L213.2813,28.5469 Q212.875,28.7031 212.4844,28.8281 Q212.0938,28.9375 211.6875,29.0156 Q211.2813,29.0938 210.8594,29.125 Q210.4375,29.1719 209.9375,29.1719 Q208.5313,29.1719 207.5,28.7188 Q206.4844,28.2656 205.8125,27.4531 Q205.1406,26.6406 204.8125,25.5 Q204.4844,24.3438 204.4844,22.9531 Q204.4844,21.5781 204.8594,20.4219 Q205.2344,19.2656 205.9531,18.4375 Q206.6719,17.6094 207.7344,17.1563 Q208.7969,16.6875 210.1875,16.6875 Q211.0938,16.6875 212,16.9219 Q212.9063,17.1406 213.7344,17.5469 L212.9063,19.6406 Q212.2188,19.3125 211.5313,19.0781 Q210.8438,18.8281 210.1875,18.8281 Z " fill="#000000"/><text fill="#000000" font-family="Serif" font-size="14" lengthAdjust="spacing" textLength="56" x="228.75" y="27.8467">Entity03</text><line style="stroke:#181818;stroke-width:0.5;" x1="176" x2="307" y1="39" y2="39"/><text fill="#000000" font-family="Serif" font-size="14" lengthAdjust="spacing" textLength="61" x="181" y="55.9951">e1_id: int</text><text fill="#000000" font-family="Serif" font-size="14" lengthAdjust="spacing" textLength="121" x="181" y="72.292">other_details: text</text><text fill="#000000" font-family="Serif" font-size="14" lengthAdjust="spacing" textLength="61" x="181" y="88.5889">e3_id: int</text><line style="stroke:#181818;stroke-width:0.5;" x1="176" x2="307" y1="95.8906" y2="95.8906"/></g><!--link Entity02 to Entity01--><g id="link_Entity02_Entity01"><path codeLine="23" d="M112.25,104.32 C112.25,104.32 112.25,143.98 112.25,143.98 " fill="none" id="Entity02-to-Entity01" style="stroke:#595959;stroke-width:1.0;"/><polygon fill="none" points="119.25,143.98,112.25,163.98,105.25,143.98,119.25,143.98" style="stroke:#595959;stroke-width:1.0;"/><text fill="#000000" font-family="Serif" font-size="13" lengthAdjust="spacing" textLength="32" x="79.25" y="120.2169">e1_id</text></g><!--link Entity03 to Entity01--><g id="link_Entity03_Entity01"><path codeLine="24" d="M202.75,104.32 C202.75,104.32 202.75,143.98 202.75,143.98 " fill="none" id="Entity03-to-Entity01" style="stroke:#595959;stroke-width:1.0;"/><polygon fill="none" points="209.75,143.98,202.75,163.98,195.75,143.98,209.75,143.98" style="stroke:#595959;stroke-width:1.0;"/><text fill="#000000" font-family="Serif" font-size="13" lengthAdjust="spacing" textLength="32" x="169.75" y="120.2169">e1_id</text></g><a href="https://mundiir.github.io/meetup-2025-orders-service/c4-component.svg" target="_top" title="https://mundiir.github.io/meetup-2025-orders-service/c4-component.svg" xlink:actuate="onRequest" xlink:href="https://mundiir.github.io/meetup-2025-orders-service/c4-component.svg" xlink:show="new" xlink:title="https://mundiir.github.io/meetup-2025-orders-service/c4-component.svg" xlink:type="simple"><text fill="#0000FF" font-family="Serif" font-size="10" lengthAdjust="spacing" text-decoration="underline" textLength="109" x="96" y="276.1729">Back to C4 Component</text></a><!--SRC=[bP7DJW8n483lVOeHBvgussM1WtkK-1G4IMa7TaB_qiwYnFZkxYeW74mqSsXcsdupxNT3NjlE8BJCCJTI9lLQRedRRjrbJ3fuHi-b3awwpXkY91qYTx6egtfMMELDrYgYJBZ9iaLbidIAlCnyi9Y_bp9spWh18G87M0VcuC1GGiqKlCWxyb4bvS2IHpv4X92u3K9egtA6Py_4XseCxm80l7BOm5ubtQfqDwwg-w5gCEj4SU0rmFZ6Gn77Ap8Da6VnSSsglraN1_eiS8jfPP0LsNn1gN-ZJFv3cLnGn7aCA1QtiySX7gBj_srPlC3FWniOVS57ujpnhnV49WJ618l5oUpHtz5kIU7AP4W6KovwvtlIAFMqw9t7u0VxUR-59wLtWxtv5EQdZULIV080]--></g></svg>