<?xml version="1.0" encoding="us-ascii" standalone="no"?><svg xmlns="http://www.w3.org/2000/svg" xmlns:xlink="http://www.w3.org/1999/xlink" contentStyleType="text/css" height="286px" preserveAspectRatio="none" style="width:329px;height:286px;background:#FFFFFF;" version="1.1" viewBox="0 0 329 286" width="329px" zoomAndPan="magnify"><defs/><g><!--class Entity01--><g id="elem_Entity01"><rect codeLine="7" fill="#F1F1F1" height="96.8906" id="Entity01" rx="6" ry="6" style="stroke:#181818;stroke-width:0.5;" width="152" x="88" y="164"/><ellipse cx="129.55" cy="180" fill="#ADD1B2" rx="11" ry="11" style="stroke:#181818;stroke-width:1.0;"/><path d="M132.5188,185.6406 Q131.9406,185.9375 131.3,186.0781 Q130.6594,186.2344 129.9563,186.2344 Q127.4563,186.2344 126.1281,184.5938 Q124.8156,182.9375 124.8156,179.8125 Q124.8156,176.6875 126.1281,175.0313 Q127.4563,173.375 129.9563,173.375 Q130.6594,173.375 131.3,173.5313 Q131.9563,173.6875 132.5188,173.9844 L132.5188,176.7031 Q131.8938,176.125 131.3,175.8594 Q130.7063,175.5781 130.0813,175.5781 Q128.7375,175.5781 128.05,176.6563 Q127.3625,177.7188 127.3625,179.8125 Q127.3625,181.9063 128.05,182.9844 Q128.7375,184.0469 130.0813,184.0469 Q130.7063,184.0469 131.3,183.7813 Q131.8938,183.5 132.5188,182.9219 L132.5188,185.6406 Z " fill="#000000"/><text fill="#000000" font-family="Serif" font-size="14" lengthAdjust="spacing" textLength="61" x="149.45" y="184.8467">Entity01</text><line style="stroke:#181818;stroke-width:0.5;" x1="89" x2="239" y1="196" y2="196"/><text fill="#000000" font-family="Serif" font-size="14" lengthAdjust="spacing" textLength="116" x="94" y="212.9951">description: text</text><text fill="#000000" font-family="Serif" font-size="14" lengthAdjust="spacing" textLength="65" x="94" y="229.292">e1_id: int</text><line style="stroke:#181818;stroke-width:0.5;" x1="89" x2="239" y1="236.5938" y2="236.5938"/><text fill="#000000" font-family="Serif" font-size="14" lengthAdjust="spacing" textLength="140" x="94" y="253.5889">name: varchar(100)</text></g><!--class Entity02--><g id="elem_Entity02"><rect codeLine="12" fill="#F1F1F1" height="96.8906" id="Entity02" rx="6" ry="6" style="stroke:#181818;stroke-width:0.5;" width="140" x="7" y="7"/><ellipse cx="43.15" cy="23" fill="#ADD1B2" rx="11" ry="11" style="stroke:#181818;stroke-width:1.0;"/><path d="M46.1188,28.6406 Q45.5406,28.9375 44.9,29.0781 Q44.2594,29.2344 43.5563,29.2344 Q41.0563,29.2344 39.7281,27.5938 Q38.4156,25.9375 38.4156,22.8125 Q38.4156,19.6875 39.7281,18.0313 Q41.0563,16.375 43.5563,16.375 Q44.2594,16.375 44.9,16.5313 Q45.5563,16.6875 46.1188,16.9844 L46.1188,19.7031 Q45.4938,19.125 44.9,18.8594 Q44.3063,18.5781 43.6813,18.5781 Q42.3375,18.5781 41.65,19.6563 Q40.9625,20.7188 40.9625,22.8125 Q40.9625,24.9063 41.65,25.9844 Q42.3375,27.0469 43.6813,27.0469 Q44.3063,27.0469 44.9,26.7813 Q45.4938,26.5 46.1188,25.9219 L46.1188,28.6406 Z " fill="#000000"/><text fill="#000000" font-family="Serif" font-size="14" lengthAdjust="spacing" textLength="61" x="61.85" y="27.8467">Entity02</text><line style="stroke:#181818;stroke-width:0.5;" x1="8" x2="146" y1="39" y2="39"/><text fill="#000000" font-family="Serif" font-size="14" lengthAdjust="spacing" textLength="65" x="13" y="55.9951">e1_id: int</text><text fill="#000000" font-family="Serif" font-size="14" lengthAdjust="spacing" textLength="128" x="13" y="72.292">other_details: text</text><text fill="#000000" font-family="Serif" font-size="14" lengthAdjust="spacing" textLength="65" x="13" y="88.5889">e2_id: int</text><line style="stroke:#181818;stroke-width:0.5;" x1="8" x2="146" y1="95.8906" y2="95.8906"/></g><!--class Entity03--><g id="elem_Entity03"><rect codeLine="17" fill="#F1F1F1" height="96.8906" id="Entity03" rx="6" ry="6" style="stroke:#181818;stroke-width:0.5;" width="140" x="182" y="7"/><ellipse cx="218.15" cy="23" fill="#ADD1B2" rx="11" ry="11" style="stroke:#181818;stroke-width:1.0;"/><path d="M221.1188,28.6406 Q220.5406,28.9375 219.9,29.0781 Q219.2594,29.2344 218.5563,29.2344 Q216.0563,29.2344 214.7281,27.5938 Q213.4156,25.9375 213.4156,22.8125 Q213.4156,19.6875 214.7281,18.0313 Q216.0563,16.375 218.5563,16.375 Q219.2594,16.375 219.9,16.5313 Q220.5563,16.6875 221.1188,16.9844 L221.1188,19.7031 Q220.4938,19.125 219.9,18.8594 Q219.3063,18.5781 218.6813,18.5781 Q217.3375,18.5781 216.65,19.6563 Q215.9625,20.7188 215.9625,22.8125 Q215.9625,24.9063 216.65,25.9844 Q217.3375,27.0469 218.6813,27.0469 Q219.3063,27.0469 219.9,26.7813 Q220.4938,26.5 221.1188,25.9219 L221.1188,28.6406 Z " fill="#000000"/><text fill="#000000" font-family="Serif" font-size="14" lengthAdjust="spacing" textLength="61" x="236.85" y="27.8467">Entity03</text><line style="stroke:#181818;stroke-width:0.5;" x1="183" x2="321" y1="39" y2="39"/><text fill="#000000" font-family="Serif" font-size="14" lengthAdjust="spacing" textLength="65" x="188" y="55.9951">e1_id: int</text><text fill="#000000" font-family="Serif" font-size="14" lengthAdjust="spacing" textLength="128" x="188" y="72.292">other_details: text</text><text fill="#000000" font-family="Serif" font-size="14" lengthAdjust="spacing" textLength="65" x="188" y="88.5889">e3_id: int</text><line style="stroke:#181818;stroke-width:0.5;" x1="183" x2="321" y1="95.8906" y2="95.8906"/></g><!--link Entity02 to Entity01--><g id="link_Entity02_Entity01"><path codeLine="23" d="M117.5,104.32 C117.5,123.31 117.5,127.02 117.5,145.98 " fill="none" id="Entity02-to-Entity01" style="stroke:#595959;stroke-width:1.0;"/><polygon fill="none" points="117.5,163.98,123.5,145.98,111.5,145.98,117.5,163.98" style="stroke:#595959;stroke-width:1.0;"/><text fill="#000000" font-family="Serif" font-size="13" lengthAdjust="spacing" textLength="34" x="82.5" y="130.2169">e1_id</text></g><!--link Entity03 to Entity01--><g id="link_Entity03_Entity01"><path codeLine="24" d="M211,104.32 C211,123.31 211,127.02 211,145.98 " fill="none" id="Entity03-to-Entity01" style="stroke:#595959;stroke-width:1.0;"/><polygon fill="none" points="211,163.98,217,145.98,205,145.98,211,163.98" style="stroke:#595959;stroke-width:1.0;"/><text fill="#000000" font-family="Serif" font-size="13" lengthAdjust="spacing" textLength="34" x="176" y="130.2169">e1_id</text></g><a href="https://mundiir.github.io/meetup-2025-orders-service/c4-component.svg" target="_top" title="https://mundiir.github.io/meetup-2025-orders-service/c4-component.svg" xlink:actuate="onRequest" xlink:href="https://mundiir.github.io/meetup-2025-orders-service/c4-component.svg" xlink:show="new" xlink:title="https://mundiir.github.io/meetup-2025-orders-service/c4-component.svg" xlink:type="simple"><text fill="#0000FF" font-family="Serif" font-size="10" lengthAdjust="spacing" text-decoration="underline" textLength="112" x="101.5" y="276.1729">Back to C4 Component</text></a><!--SRC=[bP7DJW8n483lVOeHBvgussM1WtkK-1G4IMa7TaB_qiwYnFZkxYeW74mqSsXcsdupxNT3NjlE8BJCCJTI9lLQRedRRjrbJ3fuHi-b3awwpXkY91qYTx6egtfMMELDrYgYJBZ9iaLbidIAlCnyi9Y_bp9spWh18G87M0VcuC1GGiqKlCWxyb4bvS2IHpv4X92u3K9egtA6Py_4XseCxm80l7BOm5ubtQfqDwwg-w5gCEj4SU0rmFZ6Gn77Ap8Da6VnSSsglraN1_eiS8jfPP0LsNn1gN-ZJFv3cLnGn7aCA1QtiySX7gBj_srPlC3FWniOVS57ujpnhnV49WJ618l5oUpHtz5kIU7AP4W6KovwvtlIAFMqw9t7u0VxUR-59wLtWxtv5EQdZULIV080]--></g></svg>