<?xml version="1.0" encoding="UTF-8" standalone="no"?><svg xmlns="http://www.w3.org/2000/svg" xmlns:xlink="http://www.w3.org/1999/xlink" contentScriptType="application/ecmascript" contentStyleType="text/css" height="289px" preserveAspectRatio="none" style="width:286px;height:289px;" version="1.1" viewBox="0 0 286 289" width="286px" zoomAndPan="magnify"><defs><filter height="300%" id="f1rs8uwhrky4bp" width="300%" x="-1" y="-1"><feGaussianBlur result="blurOut" stdDeviation="2.0"/><feColorMatrix in="blurOut" result="blurOut2" type="matrix" values="0 0 0 0 0 0 0 0 0 0 0 0 0 0 0 0 0 0 .4 0"/><feOffset dx="4.0" dy="4.0" in="blurOut2" result="blurOut3"/><feBlend in="SourceGraphic" in2="blurOut3" mode="normal"/></filter></defs><g><!--MD5=[6178f88bbe623bb523cef0440b7d7572]
class Entity01--><rect fill="#FEFECE" filter="url(#f1rs8uwhrky4bp)" height="86.4141" id="Entity01" rx="6" ry="6" style="stroke: #A80036; stroke-width: 1.5;" width="126" x="77.5" y="171"/><ellipse cx="110.95" cy="187" fill="#ADD1B2" rx="11" ry="11" style="stroke: #A80036; stroke-width: 1.0;"/><path d="M113.9188,192.6406 Q113.3406,192.9375 112.7,193.0781 Q112.0594,193.2344 111.3563,193.2344 Q108.8563,193.2344 107.5281,191.5938 Q106.2156,189.9375 106.2156,186.8125 Q106.2156,183.6875 107.5281,182.0313 Q108.8563,180.375 111.3563,180.375 Q112.0594,180.375 112.7,180.5313 Q113.3563,180.6875 113.9188,180.9844 L113.9188,183.7031 Q113.2938,183.125 112.7,182.8594 Q112.1063,182.5781 111.4813,182.5781 Q110.1375,182.5781 109.45,183.6563 Q108.7625,184.7188 108.7625,186.8125 Q108.7625,188.9063 109.45,189.9844 Q110.1375,191.0469 111.4813,191.0469 Q112.1063,191.0469 112.7,190.7813 Q113.2938,190.5 113.9188,189.9219 L113.9188,192.6406 Z "/><text fill="#000000" font-family="Serif" font-size="12" lengthAdjust="spacingAndGlyphs" textLength="53" x="129.05" y="191.1543">Entity01</text><line style="stroke: #A80036; stroke-width: 1.5;" x1="78.5" x2="202.5" y1="203" y2="203"/><text fill="#000000" font-family="Serif" font-size="11" lengthAdjust="spacingAndGlyphs" textLength="94" x="83.5" y="217.2104">description: text</text><text fill="#000000" font-family="Serif" font-size="11" lengthAdjust="spacingAndGlyphs" textLength="55" x="83.5" y="230.0151">e1_id: int</text><line style="stroke: #A80036; stroke-width: 1.5;" x1="78.5" x2="202.5" y1="236.6094" y2="236.6094"/><text fill="#000000" font-family="Serif" font-size="11" lengthAdjust="spacingAndGlyphs" textLength="114" x="83.5" y="250.8198">name: varchar(100)</text><!--MD5=[f4074c741a004a9c45fd03a31f8b9b03]
class Entity02--><rect fill="#FEFECE" filter="url(#f1rs8uwhrky4bp)" height="86.4141" id="Entity02" rx="6" ry="6" style="stroke: #A80036; stroke-width: 1.5;" width="117" x="6" y="8"/><ellipse cx="35.4" cy="24" fill="#ADD1B2" rx="11" ry="11" style="stroke: #A80036; stroke-width: 1.0;"/><path d="M38.3688,29.6406 Q37.7906,29.9375 37.15,30.0781 Q36.5094,30.2344 35.8063,30.2344 Q33.3063,30.2344 31.9781,28.5938 Q30.6656,26.9375 30.6656,23.8125 Q30.6656,20.6875 31.9781,19.0313 Q33.3063,17.375 35.8063,17.375 Q36.5094,17.375 37.15,17.5313 Q37.8063,17.6875 38.3688,17.9844 L38.3688,20.7031 Q37.7438,20.125 37.15,19.8594 Q36.5563,19.5781 35.9313,19.5781 Q34.5875,19.5781 33.9,20.6563 Q33.2125,21.7188 33.2125,23.8125 Q33.2125,25.9063 33.9,26.9844 Q34.5875,28.0469 35.9313,28.0469 Q36.5563,28.0469 37.15,27.7813 Q37.7438,27.5 38.3688,26.9219 L38.3688,29.6406 Z "/><text fill="#000000" font-family="Serif" font-size="12" lengthAdjust="spacingAndGlyphs" textLength="53" x="52.6" y="28.1543">Entity02</text><line style="stroke: #A80036; stroke-width: 1.5;" x1="7" x2="122" y1="40" y2="40"/><text fill="#000000" font-family="Serif" font-size="11" lengthAdjust="spacingAndGlyphs" textLength="55" x="12" y="54.2104">e1_id: int</text><text fill="#000000" font-family="Serif" font-size="11" lengthAdjust="spacingAndGlyphs" textLength="105" x="12" y="67.0151">other_details: text</text><text fill="#000000" font-family="Serif" font-size="11" lengthAdjust="spacingAndGlyphs" textLength="55" x="12" y="79.8198">e2_id: int</text><line style="stroke: #A80036; stroke-width: 1.5;" x1="7" x2="122" y1="86.4141" y2="86.4141"/><!--MD5=[bc1ecf3a155b5be2b6a42d90148215d2]
class Entity03--><rect fill="#FEFECE" filter="url(#f1rs8uwhrky4bp)" height="86.4141" id="Entity03" rx="6" ry="6" style="stroke: #A80036; stroke-width: 1.5;" width="117" x="158" y="8"/><ellipse cx="187.4" cy="24" fill="#ADD1B2" rx="11" ry="11" style="stroke: #A80036; stroke-width: 1.0;"/><path d="M190.3688,29.6406 Q189.7906,29.9375 189.15,30.0781 Q188.5094,30.2344 187.8063,30.2344 Q185.3063,30.2344 183.9781,28.5938 Q182.6656,26.9375 182.6656,23.8125 Q182.6656,20.6875 183.9781,19.0313 Q185.3063,17.375 187.8063,17.375 Q188.5094,17.375 189.15,17.5313 Q189.8063,17.6875 190.3688,17.9844 L190.3688,20.7031 Q189.7438,20.125 189.15,19.8594 Q188.5563,19.5781 187.9313,19.5781 Q186.5875,19.5781 185.9,20.6563 Q185.2125,21.7188 185.2125,23.8125 Q185.2125,25.9063 185.9,26.9844 Q186.5875,28.0469 187.9313,28.0469 Q188.5563,28.0469 189.15,27.7813 Q189.7438,27.5 190.3688,26.9219 L190.3688,29.6406 Z "/><text fill="#000000" font-family="Serif" font-size="12" lengthAdjust="spacingAndGlyphs" textLength="53" x="204.6" y="28.1543">Entity03</text><line style="stroke: #A80036; stroke-width: 1.5;" x1="159" x2="274" y1="40" y2="40"/><text fill="#000000" font-family="Serif" font-size="11" lengthAdjust="spacingAndGlyphs" textLength="55" x="164" y="54.2104">e1_id: int</text><text fill="#000000" font-family="Serif" font-size="11" lengthAdjust="spacingAndGlyphs" textLength="105" x="164" y="67.0151">other_details: text</text><text fill="#000000" font-family="Serif" font-size="11" lengthAdjust="spacingAndGlyphs" textLength="55" x="164" y="79.8198">e3_id: int</text><line style="stroke: #A80036; stroke-width: 1.5;" x1="159" x2="274" y1="86.4141" y2="86.4141"/><!--MD5=[950908d5a54b78083ee8cdbece5e80f7]
link Entity02 to Entity01--><path d="M100.25,94.25 C100.25,94.25 100.25,150.83 100.25,150.83 " fill="none" id="Entity02-&gt;Entity01" style="stroke: #595959; stroke-width: 1.0;"/><polygon fill="none" points="107.25,150.83,100.25,170.83,93.25,150.83,107.25,150.83" style="stroke: #595959; stroke-width: 1.0;"/><text fill="#000000" font-family="Serif" font-size="13" lengthAdjust="spacingAndGlyphs" textLength="34" x="65.5" y="137.0669">e1_id</text><!--MD5=[498ba849b31bfcb9eebc9ff50b5317c7]
link Entity03 to Entity01--><path d="M180.75,94.25 C180.75,94.25 180.75,150.83 180.75,150.83 " fill="none" id="Entity03-&gt;Entity01" style="stroke: #595959; stroke-width: 1.0;"/><polygon fill="none" points="187.75,150.83,180.75,170.83,173.75,150.83,187.75,150.83" style="stroke: #595959; stroke-width: 1.0;"/><text fill="#000000" font-family="Serif" font-size="13" lengthAdjust="spacingAndGlyphs" textLength="34" x="217.5" y="137.0669">e1_id</text><a href="https://mundiir.github.io/meetup-2025-orders-service/c4-component.svg" target="_top" title="https://mundiir.github.io/meetup-2025-orders-service/c4-component.svg" xlink:actuate="onRequest" xlink:href="https://mundiir.github.io/meetup-2025-orders-service/c4-component.svg" xlink:show="new" xlink:title="https://mundiir.github.io/meetup-2025-orders-service/c4-component.svg" xlink:type="simple"><text fill="#0000FF" font-family="Serif" font-size="10" lengthAdjust="spacingAndGlyphs" text-decoration="underline" textLength="112" x="90.5" y="276.2822">Back to C4 Component</text></a><!--MD5=[900fd1e2706ea96f42603d2104b4038c]
@startuml

skinparam roundCorner 12
skinparam defaultFontName "Serif"

skinparam note {
  BackgroundColor #EADBB8
  FontColor #2E2E2E
  BorderColor #D5C4A1
}

top to bottom direction
skinparam linetype ortho

class Entity01 {
   name: varchar(100)
   description: text
   e1_id: int
}
class Entity02 {
   e1_id: int
   other_details: text
   e2_id: int
}
class Entity03 {
   e1_id: int
   other_details: text
   e3_id: int
}

Entity02  -[#595959,plain]-^  Entity01 : "e1_id"
Entity03  -[#595959,plain]-^  Entity01 : "e1_id"

footer [[https://mundiir.github.io/meetup-2025-orders-service/c4-component.svg Back to C4 Component]]

@enduml

PlantUML version 1.2020.02(Sun Mar 01 10:22:07 UTC 2020)
(GPL source distribution)
Java Runtime: OpenJDK Runtime Environment
JVM: OpenJDK 64-Bit Server VM
Java Version: 17.0.17+10
Operating System: Linux
Default Encoding: UTF-8
Language: en
Country: null
--></g></svg>