<svg xmlns="http://www.w3.org/2000/svg" xmlns:xlink="http://www.w3.org/1999/xlink" contentStyleType="text/css" data-diagram-type="CLASS" height="285px" preserveAspectRatio="none" style="width:274px;height:285px;background:#FFFFFF;" version="1.1" viewBox="0 0 274 285" width="274px" zoomAndPan="magnify"><defs/><g><!--class Entity01--><g class="entity" data-entity="Entity01" data-source-line="7" data-uid="ent0002" id="entity_Entity01"><rect fill="#F1F1F1" height="96.2959" rx="6" ry="6" style="stroke:#181818;stroke-width:0.5;" width="121.9971" x="76.35" y="163.29"/><ellipse cx="110.1494" cy="179.29" fill="#ADD1B2" rx="11" ry="11" style="stroke:#181818;stroke-width:1;"/><path d="M112.6225,185.4331 Q112.0415,185.7319 111.4023,185.8813 Q110.7631,186.0307 110.0576,186.0307 Q107.5507,186.0307 106.2309,184.3789 Q104.9111,182.727 104.9111,179.6059 Q104.9111,176.4765 106.2309,174.8247 Q107.5507,173.1728 110.0576,173.1728 Q110.7631,173.1728 111.4106,173.3222 Q112.0581,173.4716 112.6225,173.7705 L112.6225,176.4931 Q111.9917,175.9121 111.3981,175.6423 Q110.8046,175.3725 110.1738,175.3725 Q108.8291,175.3725 108.1442,176.4392 Q107.4594,177.5058 107.4594,179.6059 Q107.4594,181.6977 108.1442,182.7644 Q108.8291,183.831 110.1738,183.831 Q110.8046,183.831 111.3981,183.5612 Q111.9917,183.2915 112.6225,182.7104 Z " fill="#000000"/><text fill="#000000" font-family="'Serif'" font-size="14" lengthAdjust="spacing" textLength="48.2207" x="128.327" y="184.311">Entity01</text><line style="stroke:#181818;stroke-width:0.5;" x1="77.35" x2="197.3471" y1="195.29" y2="195.29"/><text fill="#000000" font-family="'Serif'" font-size="14" lengthAdjust="spacing" textLength="90.5898" x="82.35" y="212.3603">description: text</text><text fill="#000000" font-family="'Serif'" font-size="14" lengthAdjust="spacing" textLength="53.2725" x="82.35" y="228.4589">e1_id: int</text><line style="stroke:#181818;stroke-width:0.5;" x1="77.35" x2="197.3471" y1="235.4873" y2="235.4873"/><text fill="#000000" font-family="'Serif'" font-size="14" lengthAdjust="spacing" textLength="109.9971" x="82.35" y="252.5576">name: varchar(100)</text></g><!--class Entity02--><g class="entity" data-entity="Entity02" data-source-line="12" data-uid="ent0003" id="entity_Entity02"><rect fill="#F1F1F1" height="96.2959" rx="6" ry="6" style="stroke:#181818;stroke-width:0.5;" width="112.6934" x="7" y="7"/><ellipse cx="36.6127" cy="23" fill="#ADD1B2" rx="11" ry="11" style="stroke:#181818;stroke-width:1;"/><path d="M39.0858,29.1431 Q38.5048,29.4419 37.8656,29.5913 Q37.2265,29.7407 36.5209,29.7407 Q34.0141,29.7407 32.6942,28.0889 Q31.3744,26.437 31.3744,23.3159 Q31.3744,20.1865 32.6942,18.5347 Q34.0141,16.8828 36.5209,16.8828 Q37.2265,16.8828 37.8739,17.0322 Q38.5214,17.1816 39.0858,17.4805 L39.0858,20.2031 Q38.455,19.6221 37.8615,19.3523 Q37.268,19.0825 36.6371,19.0825 Q35.2924,19.0825 34.6076,20.1492 Q33.9228,21.2158 33.9228,23.3159 Q33.9228,25.4077 34.6076,26.4744 Q35.2924,27.541 36.6371,27.541 Q37.268,27.541 37.8615,27.2712 Q38.455,27.0015 39.0858,26.4204 Z " fill="#000000"/><text fill="#000000" font-family="'Serif'" font-size="14" lengthAdjust="spacing" textLength="48.2207" x="53.86" y="28.021">Entity02</text><line style="stroke:#181818;stroke-width:0.5;" x1="8" x2="118.6934" y1="39" y2="39"/><text fill="#000000" font-family="'Serif'" font-size="14" lengthAdjust="spacing" textLength="53.2725" x="13" y="56.0703">e1_id: int</text><text fill="#000000" font-family="'Serif'" font-size="14" lengthAdjust="spacing" textLength="100.6934" x="13" y="72.1689">other_details: text</text><text fill="#000000" font-family="'Serif'" font-size="14" lengthAdjust="spacing" textLength="53.2725" x="13" y="88.2676">e2_id: int</text><line style="stroke:#181818;stroke-width:0.5;" x1="8" x2="118.6934" y1="95.2959" y2="95.2959"/></g><!--class Entity03--><g class="entity" data-entity="Entity03" data-source-line="17" data-uid="ent0004" id="entity_Entity03"><rect fill="#F1F1F1" height="96.2959" rx="6" ry="6" style="stroke:#181818;stroke-width:0.5;" width="112.6934" x="155" y="7"/><ellipse cx="184.6127" cy="23" fill="#ADD1B2" rx="11" ry="11" style="stroke:#181818;stroke-width:1;"/><path d="M187.0858,29.1431 Q186.5048,29.4419 185.8656,29.5913 Q185.2265,29.7407 184.5209,29.7407 Q182.0141,29.7407 180.6942,28.0889 Q179.3744,26.437 179.3744,23.3159 Q179.3744,20.1865 180.6942,18.5347 Q182.0141,16.8828 184.5209,16.8828 Q185.2265,16.8828 185.8739,17.0322 Q186.5214,17.1816 187.0858,17.4805 L187.0858,20.2031 Q186.455,19.6221 185.8615,19.3523 Q185.268,19.0825 184.6371,19.0825 Q183.2924,19.0825 182.6076,20.1492 Q181.9228,21.2158 181.9228,23.3159 Q181.9228,25.4077 182.6076,26.4744 Q183.2924,27.541 184.6371,27.541 Q185.268,27.541 185.8615,27.2712 Q186.455,27.0015 187.0858,26.4204 Z " fill="#000000"/><text fill="#000000" font-family="'Serif'" font-size="14" lengthAdjust="spacing" textLength="48.2207" x="201.86" y="28.021">Entity03</text><line style="stroke:#181818;stroke-width:0.5;" x1="156" x2="266.6934" y1="39" y2="39"/><text fill="#000000" font-family="'Serif'" font-size="14" lengthAdjust="spacing" textLength="53.2725" x="161" y="56.0703">e1_id: int</text><text fill="#000000" font-family="'Serif'" font-size="14" lengthAdjust="spacing" textLength="100.6934" x="161" y="72.1689">other_details: text</text><text fill="#000000" font-family="'Serif'" font-size="14" lengthAdjust="spacing" textLength="53.2725" x="161" y="88.2676">e3_id: int</text><line style="stroke:#181818;stroke-width:0.5;" x1="156" x2="266.6934" y1="95.2959" y2="95.2959"/></g><!--link Entity02 to Entity01--><g class="link" data-entity-1="Entity02" data-entity-2="Entity01" data-source-line="23" data-uid="lnk5" id="link_Entity02_Entity01"><path codeLine="23" d="M98.02,103.74 C98.02,122.56 98.02,126.06 98.02,144.88" fill="none" id="Entity02-to-Entity01" style="stroke:#595959;stroke-width:1;"/><polygon fill="none" points="98.02,162.88,104.02,144.88,92.02,144.88,98.02,162.88" style="stroke:#595959;stroke-width:1;"/><text fill="#000000" font-family="'Serif'" font-size="13" lengthAdjust="spacing" textLength="28.8818" x="69.02" y="130.4467">e1_id</text></g><!--link Entity03 to Entity01--><g class="link" data-entity-1="Entity03" data-entity-2="Entity01" data-source-line="24" data-uid="lnk6" id="link_Entity03_Entity01"><path codeLine="24" d="M176.67,103.74 C176.67,122.56 176.67,126.06 176.67,144.88" fill="none" id="Entity03-to-Entity01" style="stroke:#595959;stroke-width:1;"/><polygon fill="none" points="176.67,162.88,182.67,144.88,170.67,144.88,176.67,162.88" style="stroke:#595959;stroke-width:1;"/><text fill="#000000" font-family="'Serif'" font-size="13" lengthAdjust="spacing" textLength="28.8818" x="147.67" y="130.4467">e1_id</text></g><g class="footer" data-source-line="26"><a href="https://mundiir.github.io/meetup-2025-orders-service/c4-component.svg" target="_top" title="https://mundiir.github.io/meetup-2025-orders-service/c4-component.svg" xlink:actuate="onRequest" xlink:href="https://mundiir.github.io/meetup-2025-orders-service/c4-component.svg" xlink:show="new" xlink:title="https://mundiir.github.io/meetup-2025-orders-service/c4-component.svg" xlink:type="simple"><text fill="#0000FF" font-family="'Serif'" font-size="10" lengthAdjust="spacing" text-decoration="underline" textLength="94.1602" x="83.2666" y="274.9218">Back to C4 Component</text></a></g><!--SRC=[bP7DJW8n483lVOeHBvgussM1WtkK-1G4IMa7TaB_qiwYnFZkxYeW74mqSsXcsdupxNT3NjlE8BJCCJTI9lLQRedRRjrbJ3fuHi-b3awwpXkY91qYTx6egtfMMELDrYgYJBZ9iaLbidIAlCnyi9Y_bp9spWh18G87M0VcuC1GGiqKlCWxyb4bvS2IHpv4X92u3K9egtA6Py_4XseCxm80l7BOm5ubtQfqDwwg-w5gCEj4SU0rmFZ6Gn77Ap8Da6VnSSsglraN1_eiS8jfPP0LsNn1gN-ZJFv3cLnGn7aCA1QtiySX7gBj_srPlC3FWniOVS57ujpnhnV49WJ618l5oUpHtz5kIU7AP4W6KovwvtlIAFMqw9t7u0VxUR-59wLtWxtv5EQdZULIV080]--></g></svg>