<?xml version="1.0" encoding="us-ascii" standalone="no"?><svg xmlns="http://www.w3.org/2000/svg" xmlns:xlink="http://www.w3.org/1999/xlink" contentStyleType="text/css" height="959px" preserveAspectRatio="none" style="width:1143px;height:959px;background:#FFFFFF;" version="1.1" viewBox="0 0 1143 959" width="1143px" zoomAndPan="magnify"><defs/><g><rect fill="#FFFFFF" height="95.3984" style="stroke:#181818;stroke-width:1.0;" width="10" x="339.5" y="141.5625"/><rect fill="#FFFFFF" height="29.1328" style="stroke:#181818;stroke-width:1.0;" width="10" x="614.5" y="287.0938"/><rect fill="#FFFFFF" height="29.1328" style="stroke:#181818;stroke-width:1.0;" width="10" x="722" y="345.3594"/><rect fill="#FFFFFF" height="29.1328" style="stroke:#181818;stroke-width:1.0;" width="10" x="823" y="403.625"/><rect fill="#FFFFFF" height="29.1328" style="stroke:#181818;stroke-width:1.0;" width="10" x="940" y="628.5547"/><rect fill="#FFFFFF" height="29.1328" style="stroke:#181818;stroke-width:1.0;" width="10" x="1072" y="757.7578"/><rect fill="none" height="60.2656" style="stroke:#000000;stroke-width:1.5;" width="367" x="60" y="198.6953"/><rect fill="none" height="60.2656" style="stroke:#000000;stroke-width:1.5;" width="367" x="60" y="447.7578"/><rect fill="none" height="207.6016" style="stroke:#000000;stroke-width:1.5;" width="775" x="252" y="522.0234"/><rect fill="none" height="132.3359" style="stroke:#000000;stroke-width:1.5;" width="755" x="262" y="590.2891"/><line style="stroke:#181818;stroke-width:0.5;stroke-dasharray:5.0,5.0;" x1="26" x2="26" y1="81.2969" y2="863.1563"/><line style="stroke:#181818;stroke-width:0.5;stroke-dasharray:5.0,5.0;" x1="128" x2="128" y1="81.2969" y2="863.1563"/><line style="stroke:#181818;stroke-width:0.5;stroke-dasharray:5.0,5.0;" x1="344" x2="344" y1="81.2969" y2="863.1563"/><line style="stroke:#181818;stroke-width:0.5;stroke-dasharray:5.0,5.0;" x1="619" x2="619" y1="81.2969" y2="863.1563"/><line style="stroke:#181818;stroke-width:0.5;stroke-dasharray:5.0,5.0;" x1="727" x2="727" y1="81.2969" y2="863.1563"/><line style="stroke:#181818;stroke-width:0.5;stroke-dasharray:5.0,5.0;" x1="828" x2="828" y1="81.2969" y2="863.1563"/><line style="stroke:#181818;stroke-width:0.5;stroke-dasharray:5.0,5.0;" x1="945" x2="945" y1="81.2969" y2="863.1563"/><line style="stroke:#181818;stroke-width:0.5;stroke-dasharray:5.0,5.0;" x1="1077" x2="1077" y1="81.2969" y2="863.1563"/><text fill="#000000" font-family="sans-serif" font-size="14" lengthAdjust="spacing" textLength="37" x="5" y="77.9951">Client</text><ellipse cx="26.5" cy="13.5" fill="#E2E2F0" rx="8" ry="8" style="stroke:#181818;stroke-width:0.5;"/><path d="M26.5,21.5 L26.5,48.5 M13.5,29.5 L39.5,29.5 M26.5,48.5 L13.5,63.5 M26.5,48.5 L39.5,63.5 " fill="none" style="stroke:#181818;stroke-width:0.5;"/><text fill="#000000" font-family="sans-serif" font-size="14" lengthAdjust="spacing" textLength="37" x="5" y="875.1514">Client</text><ellipse cx="26.5" cy="886.9531" fill="#E2E2F0" rx="8" ry="8" style="stroke:#181818;stroke-width:0.5;"/><path d="M26.5,894.9531 L26.5,921.9531 M13.5,902.9531 L39.5,902.9531 M26.5,921.9531 L13.5,936.9531 M26.5,921.9531 L39.5,936.9531 " fill="none" style="stroke:#181818;stroke-width:0.5;"/><rect fill="#E2E2F0" height="30.2969" rx="2.5" ry="2.5" style="stroke:#181818;stroke-width:0.5;" width="117" x="70" y="50"/><text fill="#000000" font-family="sans-serif" font-size="14" lengthAdjust="spacing" textLength="103" x="77" y="69.9951">OrderController</text><rect fill="#E2E2F0" height="30.2969" rx="2.5" ry="2.5" style="stroke:#181818;stroke-width:0.5;" width="117" x="70" y="862.1563"/><text fill="#000000" font-family="sans-serif" font-size="14" lengthAdjust="spacing" textLength="103" x="77" y="882.1514">OrderController</text><rect fill="#E2E2F0" height="30.2969" rx="2.5" ry="2.5" style="stroke:#181818;stroke-width:0.5;" width="145" x="272" y="50"/><text fill="#000000" font-family="sans-serif" font-size="14" lengthAdjust="spacing" textLength="131" x="279" y="69.9951">CreateOrderHandler</text><rect fill="#E2E2F0" height="30.2969" rx="2.5" ry="2.5" style="stroke:#181818;stroke-width:0.5;" width="145" x="272" y="862.1563"/><text fill="#000000" font-family="sans-serif" font-size="14" lengthAdjust="spacing" textLength="131" x="279" y="882.1514">CreateOrderHandler</text><rect fill="#E2E2F0" height="30.2969" rx="2.5" ry="2.5" style="stroke:#181818;stroke-width:0.5;" width="103" x="568" y="50"/><text fill="#000000" font-family="sans-serif" font-size="14" lengthAdjust="spacing" textLength="89" x="575" y="69.9951">PromoService</text><rect fill="#E2E2F0" height="30.2969" rx="2.5" ry="2.5" style="stroke:#181818;stroke-width:0.5;" width="103" x="568" y="862.1563"/><text fill="#000000" font-family="sans-serif" font-size="14" lengthAdjust="spacing" textLength="89" x="575" y="882.1514">PromoService</text><rect fill="#E2E2F0" height="30.2969" rx="2.5" ry="2.5" style="stroke:#181818;stroke-width:0.5;" width="92" x="681" y="50"/><text fill="#000000" font-family="sans-serif" font-size="14" lengthAdjust="spacing" textLength="78" x="688" y="69.9951">FxConverter</text><rect fill="#E2E2F0" height="30.2969" rx="2.5" ry="2.5" style="stroke:#181818;stroke-width:0.5;" width="92" x="681" y="862.1563"/><text fill="#000000" font-family="sans-serif" font-size="14" lengthAdjust="spacing" textLength="78" x="688" y="882.1514">FxConverter</text><rect fill="#E2E2F0" height="30.2969" rx="2.5" ry="2.5" style="stroke:#181818;stroke-width:0.5;" width="90" x="783" y="50"/><text fill="#000000" font-family="sans-serif" font-size="14" lengthAdjust="spacing" textLength="76" x="790" y="69.9951">RiskChecker</text><rect fill="#E2E2F0" height="30.2969" rx="2.5" ry="2.5" style="stroke:#181818;stroke-width:0.5;" width="90" x="783" y="862.1563"/><text fill="#000000" font-family="sans-serif" font-size="14" lengthAdjust="spacing" textLength="76" x="790" y="882.1514">RiskChecker</text><rect fill="#E2E2F0" height="30.2969" rx="2.5" ry="2.5" style="stroke:#181818;stroke-width:0.5;" width="124" x="883" y="50"/><text fill="#000000" font-family="sans-serif" font-size="14" lengthAdjust="spacing" textLength="110" x="890" y="69.9951">PaymentGateway</text><rect fill="#E2E2F0" height="30.2969" rx="2.5" ry="2.5" style="stroke:#181818;stroke-width:0.5;" width="124" x="883" y="862.1563"/><text fill="#000000" font-family="sans-serif" font-size="14" lengthAdjust="spacing" textLength="110" x="890" y="882.1514">PaymentGateway</text><rect fill="#E2E2F0" height="30.2969" rx="2.5" ry="2.5" style="stroke:#181818;stroke-width:0.5;" width="120" x="1017" y="50"/><text fill="#000000" font-family="sans-serif" font-size="14" lengthAdjust="spacing" textLength="106" x="1024" y="69.9951">OrderRepository</text><rect fill="#E2E2F0" height="30.2969" rx="2.5" ry="2.5" style="stroke:#181818;stroke-width:0.5;" width="120" x="1017" y="862.1563"/><text fill="#000000" font-family="sans-serif" font-size="14" lengthAdjust="spacing" textLength="106" x="1024" y="882.1514">OrderRepository</text><rect fill="#FFFFFF" height="95.3984" style="stroke:#181818;stroke-width:1.0;" width="10" x="339.5" y="141.5625"/><rect fill="#FFFFFF" height="29.1328" style="stroke:#181818;stroke-width:1.0;" width="10" x="614.5" y="287.0938"/><rect fill="#FFFFFF" height="29.1328" style="stroke:#181818;stroke-width:1.0;" width="10" x="722" y="345.3594"/><rect fill="#FFFFFF" height="29.1328" style="stroke:#181818;stroke-width:1.0;" width="10" x="823" y="403.625"/><rect fill="#FFFFFF" height="29.1328" style="stroke:#181818;stroke-width:1.0;" width="10" x="940" y="628.5547"/><rect fill="#FFFFFF" height="29.1328" style="stroke:#181818;stroke-width:1.0;" width="10" x="1072" y="757.7578"/><polygon fill="#181818" points="116.5,108.4297,126.5,112.4297,116.5,116.4297,120.5,112.4297" style="stroke:#181818;stroke-width:1.0;"/><line style="stroke:#181818;stroke-width:1.0;" x1="26.5" x2="122.5" y1="112.4297" y2="112.4297"/><text fill="#000000" font-family="sans-serif" font-size="13" lengthAdjust="spacing" textLength="78" x="33.5" y="107.3638">POST /orders</text><polygon fill="#181818" points="327.5,137.5625,337.5,141.5625,327.5,145.5625,331.5,141.5625" style="stroke:#181818;stroke-width:1.0;"/><line style="stroke:#181818;stroke-width:1.0;" x1="128.5" x2="333.5" y1="141.5625" y2="141.5625"/><text fill="#000000" font-family="sans-serif" font-size="13" lengthAdjust="spacing" textLength="192" x="135.5" y="136.4966">__invoke(CreateOrderCommand)</text><line style="stroke:#181818;stroke-width:1.0;" x1="349.5" x2="391.5" y1="170.6953" y2="170.6953"/><line style="stroke:#181818;stroke-width:1.0;" x1="391.5" x2="391.5" y1="170.6953" y2="183.6953"/><line style="stroke:#181818;stroke-width:1.0;" x1="350.5" x2="391.5" y1="183.6953" y2="183.6953"/><polygon fill="#181818" points="360.5,179.6953,350.5,183.6953,360.5,187.6953,356.5,183.6953" style="stroke:#181818;stroke-width:1.0;"/><text fill="#000000" font-family="sans-serif" font-size="13" lengthAdjust="spacing" textLength="99" x="356.5" y="165.6294">validate currency</text><path d="M60,198.6953 L121,198.6953 L121,205.8281 L111,215.8281 L60,215.8281 L60,198.6953 " fill="#EEEEEE" style="stroke:#000000;stroke-width:1.5;"/><rect fill="none" height="60.2656" style="stroke:#000000;stroke-width:1.5;" width="367" x="60" y="198.6953"/><text fill="#000000" font-family="sans-serif" font-size="13" font-weight="bold" lengthAdjust="spacing" textLength="16" x="75" y="211.7622">alt</text><text fill="#000000" font-family="sans-serif" font-size="11" font-weight="bold" lengthAdjust="spacing" textLength="128" x="136" y="210.9058">[Unsupported currency]</text><polygon fill="#181818" points="139.5,232.9609,129.5,236.9609,139.5,240.9609,135.5,236.9609" style="stroke:#181818;stroke-width:1.0;"/><line style="stroke:#181818;stroke-width:1.0;stroke-dasharray:2.0,2.0;" x1="133.5" x2="343.5" y1="236.9609" y2="236.9609"/><text fill="#000000" font-family="sans-serif" font-size="13" lengthAdjust="spacing" textLength="170" x="145.5" y="231.895">throw UnsupportedCurrency</text><polygon fill="#181818" points="332.5,246.9609,342.5,250.9609,332.5,254.9609,336.5,250.9609" style="stroke:#181818;stroke-width:1.0;"/><line style="stroke:#181818;stroke-width:1.0;stroke-dasharray:2.0,2.0;" x1="128.5" x2="338.5" y1="250.9609" y2="250.9609"/><polygon fill="#181818" points="602.5,283.0938,612.5,287.0938,602.5,291.0938,606.5,287.0938" style="stroke:#181818;stroke-width:1.0;"/><line style="stroke:#181818;stroke-width:1.0;" x1="344.5" x2="608.5" y1="287.0938" y2="287.0938"/><text fill="#000000" font-family="sans-serif" font-size="13" lengthAdjust="spacing" textLength="251" x="351.5" y="282.0278">getDiscountPercent(promoCode, currency)</text><polygon fill="#181818" points="355.5,312.2266,345.5,316.2266,355.5,320.2266,351.5,316.2266" style="stroke:#181818;stroke-width:1.0;"/><line style="stroke:#181818;stroke-width:1.0;stroke-dasharray:2.0,2.0;" x1="349.5" x2="618.5" y1="316.2266" y2="316.2266"/><text fill="#000000" font-family="sans-serif" font-size="13" lengthAdjust="spacing" textLength="45" x="361.5" y="311.1606">percent</text><polygon fill="#181818" points="710,341.3594,720,345.3594,710,349.3594,714,345.3594" style="stroke:#181818;stroke-width:1.0;"/><line style="stroke:#181818;stroke-width:1.0;" x1="344.5" x2="716" y1="345.3594" y2="345.3594"/><text fill="#000000" font-family="sans-serif" font-size="13" lengthAdjust="spacing" textLength="264" x="351.5" y="340.2935">convert(discountedAmount, currency, "USD")</text><polygon fill="#181818" points="355.5,370.4922,345.5,374.4922,355.5,378.4922,351.5,374.4922" style="stroke:#181818;stroke-width:1.0;"/><line style="stroke:#181818;stroke-width:1.0;stroke-dasharray:2.0,2.0;" x1="349.5" x2="726" y1="374.4922" y2="374.4922"/><text fill="#000000" font-family="sans-serif" font-size="13" lengthAdjust="spacing" textLength="96" x="361.5" y="369.4263">chargedAmount</text><polygon fill="#181818" points="811,399.625,821,403.625,811,407.625,815,403.625" style="stroke:#181818;stroke-width:1.0;"/><line style="stroke:#181818;stroke-width:1.0;" x1="344.5" x2="817" y1="403.625" y2="403.625"/><text fill="#000000" font-family="sans-serif" font-size="13" lengthAdjust="spacing" textLength="240" x="351.5" y="398.5591">isAllowed(order, chargedAmount, "USD")</text><polygon fill="#181818" points="355.5,428.7578,345.5,432.7578,355.5,436.7578,351.5,432.7578" style="stroke:#181818;stroke-width:1.0;"/><line style="stroke:#181818;stroke-width:1.0;stroke-dasharray:2.0,2.0;" x1="349.5" x2="827" y1="432.7578" y2="432.7578"/><text fill="#000000" font-family="sans-serif" font-size="13" lengthAdjust="spacing" textLength="52" x="361.5" y="427.6919">allowed?</text><path d="M60,447.7578 L121,447.7578 L121,454.8906 L111,464.8906 L60,464.8906 L60,447.7578 " fill="#EEEEEE" style="stroke:#000000;stroke-width:1.5;"/><rect fill="none" height="60.2656" style="stroke:#000000;stroke-width:1.5;" width="367" x="60" y="447.7578"/><text fill="#000000" font-family="sans-serif" font-size="13" font-weight="bold" lengthAdjust="spacing" textLength="16" x="75" y="460.8247">alt</text><text fill="#000000" font-family="sans-serif" font-size="11" font-weight="bold" lengthAdjust="spacing" textLength="73" x="136" y="459.9683">[Not allowed]</text><polygon fill="#181818" points="139.5,482.0234,129.5,486.0234,139.5,490.0234,135.5,486.0234" style="stroke:#181818;stroke-width:1.0;"/><line style="stroke:#181818;stroke-width:1.0;stroke-dasharray:2.0,2.0;" x1="133.5" x2="343.5" y1="486.0234" y2="486.0234"/><text fill="#000000" font-family="sans-serif" font-size="13" lengthAdjust="spacing" textLength="123" x="145.5" y="480.9575">throw OrderRejected</text><polygon fill="#181818" points="332.5,496.0234,342.5,500.0234,332.5,504.0234,336.5,500.0234" style="stroke:#181818;stroke-width:1.0;"/><line style="stroke:#181818;stroke-width:1.0;stroke-dasharray:2.0,2.0;" x1="128.5" x2="338.5" y1="500.0234" y2="500.0234"/><path d="M252,522.0234 L313,522.0234 L313,529.1563 L303,539.1563 L252,539.1563 L252,522.0234 " fill="#EEEEEE" style="stroke:#000000;stroke-width:1.5;"/><rect fill="none" height="207.6016" style="stroke:#000000;stroke-width:1.5;" width="775" x="252" y="522.0234"/><text fill="#000000" font-family="sans-serif" font-size="13" font-weight="bold" lengthAdjust="spacing" textLength="16" x="267" y="535.0903">alt</text><text fill="#000000" font-family="sans-serif" font-size="11" font-weight="bold" lengthAdjust="spacing" textLength="117" x="328" y="534.2339">[chargedAmount == 0]</text><line style="stroke:#181818;stroke-width:1.0;" x1="344.5" x2="386.5" y1="560.2891" y2="560.2891"/><line style="stroke:#181818;stroke-width:1.0;" x1="386.5" x2="386.5" y1="560.2891" y2="573.2891"/><line style="stroke:#181818;stroke-width:1.0;" x1="345.5" x2="386.5" y1="573.2891" y2="573.2891"/><polygon fill="#181818" points="355.5,569.2891,345.5,573.2891,355.5,577.2891,351.5,573.2891" style="stroke:#181818;stroke-width:1.0;"/><text fill="#000000" font-family="sans-serif" font-size="13" lengthAdjust="spacing" textLength="136" x="351.5" y="555.2231">transactionId = "free_*"</text><line style="stroke:#000000;stroke-width:1.0;stroke-dasharray:2.0,2.0;" x1="252" x2="1027" y1="582.2891" y2="582.2891"/><path d="M262,590.2891 L335,590.2891 L335,597.4219 L325,607.4219 L262,607.4219 L262,590.2891 " fill="#EEEEEE" style="stroke:#000000;stroke-width:1.5;"/><rect fill="none" height="132.3359" style="stroke:#000000;stroke-width:1.5;" width="755" x="262" y="590.2891"/><text fill="#000000" font-family="sans-serif" font-size="13" font-weight="bold" lengthAdjust="spacing" textLength="28" x="277" y="603.356">loop</text><text fill="#000000" font-family="sans-serif" font-size="11" font-weight="bold" lengthAdjust="spacing" textLength="98" x="350" y="602.4995">[up to 3 attempts]</text><polygon fill="#181818" points="928,624.5547,938,628.5547,928,632.5547,932,628.5547" style="stroke:#181818;stroke-width:1.0;"/><line style="stroke:#181818;stroke-width:1.0;" x1="344.5" x2="934" y1="628.5547" y2="628.5547"/><text fill="#000000" font-family="sans-serif" font-size="13" lengthAdjust="spacing" textLength="185" x="351.5" y="623.4888">charge(chargedAmount, "USD")</text><polygon fill="#181818" points="355.5,653.6875,345.5,657.6875,355.5,661.6875,351.5,657.6875" style="stroke:#181818;stroke-width:1.0;"/><line style="stroke:#181818;stroke-width:1.0;stroke-dasharray:2.0,2.0;" x1="349.5" x2="944" y1="657.6875" y2="657.6875"/><text fill="#000000" font-family="sans-serif" font-size="13" lengthAdjust="spacing" textLength="78" x="361.5" y="652.6216">transactionId</text><line style="stroke:#000000;stroke-width:1.0;stroke-dasharray:2.0,2.0;" x1="262" x2="1017" y1="666.6875" y2="666.6875"/><text fill="#000000" font-family="sans-serif" font-size="11" font-weight="bold" lengthAdjust="spacing" textLength="157" x="267" y="676.8979">[TransientPaymentException]</text><line style="stroke:#181818;stroke-width:1.0;" x1="344.5" x2="386.5" y1="701.625" y2="701.625"/><line style="stroke:#181818;stroke-width:1.0;" x1="386.5" x2="386.5" y1="701.625" y2="714.625"/><line style="stroke:#181818;stroke-width:1.0;" x1="345.5" x2="386.5" y1="714.625" y2="714.625"/><polygon fill="#181818" points="355.5,710.625,345.5,714.625,355.5,718.625,351.5,714.625" style="stroke:#181818;stroke-width:1.0;"/><text fill="#000000" font-family="sans-serif" font-size="13" lengthAdjust="spacing" textLength="116" x="351.5" y="696.5591">exponential backoff</text><polygon fill="#181818" points="1060,753.7578,1070,757.7578,1060,761.7578,1064,757.7578" style="stroke:#181818;stroke-width:1.0;"/><line style="stroke:#181818;stroke-width:1.0;" x1="344.5" x2="1066" y1="757.7578" y2="757.7578"/><text fill="#000000" font-family="sans-serif" font-size="13" lengthAdjust="spacing" textLength="67" x="351.5" y="752.6919">save(order)</text><polygon fill="#181818" points="355.5,782.8906,345.5,786.8906,355.5,790.8906,351.5,786.8906" style="stroke:#181818;stroke-width:1.0;"/><line style="stroke:#181818;stroke-width:1.0;stroke-dasharray:2.0,2.0;" x1="349.5" x2="1076" y1="786.8906" y2="786.8906"/><text fill="#000000" font-family="sans-serif" font-size="13" lengthAdjust="spacing" textLength="14" x="361.5" y="781.8247">ok</text><polygon fill="#181818" points="139.5,812.0234,129.5,816.0234,139.5,820.0234,135.5,816.0234" style="stroke:#181818;stroke-width:1.0;"/><line style="stroke:#181818;stroke-width:1.0;stroke-dasharray:2.0,2.0;" x1="133.5" x2="343.5" y1="816.0234" y2="816.0234"/><text fill="#000000" font-family="sans-serif" font-size="13" lengthAdjust="spacing" textLength="81" x="145.5" y="810.9575">OrderCreated</text><polygon fill="#181818" points="37.5,841.1563,27.5,845.1563,37.5,849.1563,33.5,845.1563" style="stroke:#181818;stroke-width:1.0;"/><line style="stroke:#181818;stroke-width:1.0;stroke-dasharray:2.0,2.0;" x1="31.5" x2="127.5" y1="845.1563" y2="845.1563"/><text fill="#000000" font-family="sans-serif" font-size="13" lengthAdjust="spacing" textLength="70" x="43.5" y="840.0903">201 Created</text><a href="https://mundiir.github.io/meetup-2025-orders-service/c4-component.svg" target="_top" title="https://mundiir.github.io/meetup-2025-orders-service/c4-component.svg" xlink:actuate="onRequest" xlink:href="https://mundiir.github.io/meetup-2025-orders-service/c4-component.svg" xlink:show="new" xlink:title="https://mundiir.github.io/meetup-2025-orders-service/c4-component.svg" xlink:type="simple"><text fill="#0000FF" font-family="sans-serif" font-size="10" lengthAdjust="spacing" text-decoration="underline" textLength="104" x="518.5" y="948.7354">Back to C4 Component</text></a><!--SRC=[XLJDRXCn4BxxAKQv453Jb58kAnLKjWIG4AtwSwggolLE4fDTZsLxytFZ8NX2dWJRkqdiKjIBT-tvPhxFC-Dv1QL1xl32L6ZWrYAKt2z_Vls6CwrhARYJfE0xttZpIhevSE7aCfvQnlo639IrHEMOviP98JLN3WOnO4dA6QfhD0FW5lRR79j8-CfLjONt_ndsqb13rsYMKc30n7s6cAmzpHADyu8zOBBEh5VIBievYaLd3TiyFjyq_YvVl9uLtqI6xYH3HQbNgCbAV_y82pl6kap0w4Dorm8kBwvlO4p1oRAz8S3wEnRmy23LaXOuJ99HKjDu-slMvnntAM7zJnPYoMjP1PHeZK4bDepN3cwLRRKcduzgRm3O1NYYrSqDhLAdSkzJuJz200owrYY6gifKnS8KC4DtBgsWLhbBDC8dPwY3fQGA3tPwaXjs1OrhrBQxdUxSMIAYmwQiatK1eYl_iEfviJfhmdTFTm23s-lpGSBgksIopld4d9lPrZTbzTYKChHG0TAUrJMji1h6CX_axlyIniOBIqxAko0VKxu8ZQNyGMwBUB62VOl-HE4Y-iNQ1O9CD9oUmb7Aa-XqXYiR0fBwLi4f3AO6yU7DW65jqVlKH1fQ3OxW7N3diD7E-lCiMl-ojgaUFf-ouBIlUFyOms7_doSm4nPXQR_il8DCk0dOy5xxyyzhWJfuFXMwYuvhJSeZ9Q_XaOi5JQSXc4_Vq_OFuw00ovVODKHQ-Z0fmf8hfqLMz3XE_bVYRZh4GL6nPogRpfZW6gTI0ST7Rs7hnQP4OKJUtSsTqxOOZvjMLLAQmvcVyktZeQHnWxu_zEZuwFZzg9jU8zkDth4u6GbgkcmSskKCFlbqX7AN9rvfRxY_Pty1]--></g></svg>