<?xml version="1.0" encoding="us-ascii" standalone="no"?><svg xmlns="http://www.w3.org/2000/svg" xmlns:xlink="http://www.w3.org/1999/xlink" contentStyleType="text/css" height="812px" preserveAspectRatio="none" style="width:754px;height:812px;background:#FFFFFF;" version="1.1" viewBox="0 0 754 812" width="754px" zoomAndPan="magnify"><defs/><g><rect fill="#FFFFE0" height="182.9297" style="stroke:#181818;stroke-width:1.0;" width="10" x="163.5" y="112.4297"/><rect fill="#90EE90" height="114.0977" style="stroke:#181818;stroke-width:1.0;" width="10" x="391.5" y="141.5625"/><rect fill="#E0FFFF" height="29.1328" style="stroke:#181818;stroke-width:1.0;" width="10" x="584.5" y="345.4922"/><rect fill="none" height="110.5313" style="stroke:#000000;stroke-width:1.5;" width="549.5" x="10" y="206.8281"/><rect fill="none" height="125.6641" style="stroke:#000000;stroke-width:1.5;" width="531.5" x="10" y="389.625"/><line style="stroke:#181818;stroke-width:0.5;stroke-dasharray:5.0,5.0;" x1="41" x2="41" y1="81.2969" y2="716.4844"/><line style="stroke:#181818;stroke-width:0.5;stroke-dasharray:5.0,5.0;" x1="168" x2="168" y1="81.2969" y2="716.4844"/><line style="stroke:#181818;stroke-width:0.5;stroke-dasharray:5.0,5.0;" x1="396.5" x2="396.5" y1="81.2969" y2="716.4844"/><line style="stroke:#181818;stroke-width:0.5;stroke-dasharray:5.0,5.0;" x1="589.5" x2="589.5" y1="81.2969" y2="716.4844"/><text fill="#000000" font-family="sans-serif" font-size="14" lengthAdjust="spacing" textLength="37" x="20" y="77.9951">Client</text><ellipse cx="41.5" cy="13.5" fill="#ADD8E6" rx="8" ry="8" style="stroke:#181818;stroke-width:0.5;"/><path d="M41.5,21.5 L41.5,48.5 M28.5,29.5 L54.5,29.5 M41.5,48.5 L28.5,63.5 M41.5,48.5 L54.5,63.5 " fill="none" style="stroke:#181818;stroke-width:0.5;"/><text fill="#000000" font-family="sans-serif" font-size="14" lengthAdjust="spacing" textLength="37" x="20" y="728.4795">Client</text><ellipse cx="41.5" cy="740.2813" fill="#ADD8E6" rx="8" ry="8" style="stroke:#181818;stroke-width:0.5;"/><path d="M41.5,748.2813 L41.5,775.2813 M28.5,756.2813 L54.5,756.2813 M41.5,775.2813 L28.5,790.2813 M41.5,775.2813 L54.5,790.2813 " fill="none" style="stroke:#181818;stroke-width:0.5;"/><rect fill="#FFFFE0" height="30.2969" rx="2.5" ry="2.5" style="stroke:#181818;stroke-width:0.5;" width="117" x="110" y="50"/><text fill="#000000" font-family="sans-serif" font-size="14" lengthAdjust="spacing" textLength="103" x="117" y="69.9951">OrderController</text><rect fill="#FFFFE0" height="30.2969" rx="2.5" ry="2.5" style="stroke:#181818;stroke-width:0.5;" width="117" x="110" y="715.4844"/><text fill="#000000" font-family="sans-serif" font-size="14" lengthAdjust="spacing" textLength="103" x="117" y="735.4795">OrderController</text><rect fill="#90EE90" height="30.2969" rx="2.5" ry="2.5" style="stroke:#181818;stroke-width:0.5;" width="126" x="333.5" y="50"/><text fill="#000000" font-family="sans-serif" font-size="14" lengthAdjust="spacing" textLength="112" x="340.5" y="69.9951">GetOrderHandler</text><rect fill="#90EE90" height="30.2969" rx="2.5" ry="2.5" style="stroke:#181818;stroke-width:0.5;" width="126" x="333.5" y="715.4844"/><text fill="#000000" font-family="sans-serif" font-size="14" lengthAdjust="spacing" textLength="112" x="340.5" y="735.4795">GetOrderHandler</text><rect fill="#E0FFFF" height="30.2969" rx="2.5" ry="2.5" style="stroke:#181818;stroke-width:0.5;" width="120" x="529.5" y="50"/><text fill="#000000" font-family="sans-serif" font-size="14" lengthAdjust="spacing" textLength="106" x="536.5" y="69.9951">OrderRepository</text><rect fill="#E0FFFF" height="30.2969" rx="2.5" ry="2.5" style="stroke:#181818;stroke-width:0.5;" width="120" x="529.5" y="715.4844"/><text fill="#000000" font-family="sans-serif" font-size="14" lengthAdjust="spacing" textLength="106" x="536.5" y="735.4795">OrderRepository</text><rect fill="#FFFFE0" height="182.9297" style="stroke:#181818;stroke-width:1.0;" width="10" x="163.5" y="112.4297"/><rect fill="#90EE90" height="114.0977" style="stroke:#181818;stroke-width:1.0;" width="10" x="391.5" y="141.5625"/><rect fill="#E0FFFF" height="29.1328" style="stroke:#181818;stroke-width:1.0;" width="10" x="584.5" y="345.4922"/><polygon fill="#181818" points="151.5,108.4297,161.5,112.4297,151.5,116.4297,155.5,112.4297" style="stroke:#181818;stroke-width:1.0;"/><line style="stroke:#181818;stroke-width:1.0;" x1="41.5" x2="157.5" y1="112.4297" y2="112.4297"/><text fill="#000000" font-family="sans-serif" font-size="13" lengthAdjust="spacing" textLength="96" x="54.5" y="107.3638">GET /orders/{id}</text><polygon fill="#181818" points="379.5,137.5625,389.5,141.5625,379.5,145.5625,383.5,141.5625" style="stroke:#181818;stroke-width:1.0;"/><line style="stroke:#181818;stroke-width:1.0;" x1="173.5" x2="385.5" y1="141.5625" y2="141.5625"/><text fill="#000000" font-family="sans-serif" font-size="13" lengthAdjust="spacing" textLength="147" x="209" y="136.4966">__invoke(GetOrderQuery)</text><line style="stroke:#181818;stroke-width:1.0;" x1="401.5" x2="443.5" y1="174.7617" y2="174.7617"/><line style="stroke:#181818;stroke-width:1.0;" x1="443.5" x2="443.5" y1="174.7617" y2="187.7617"/><line style="stroke:#181818;stroke-width:1.0;" x1="402.5" x2="443.5" y1="187.7617" y2="187.7617"/><polygon fill="#181818" points="412.5,183.7617,402.5,187.7617,412.5,191.7617,408.5,187.7617" style="stroke:#181818;stroke-width:1.0;"/><text fill="#000000" font-family="sans-serif" font-size="13" lengthAdjust="spacing" textLength="169" x="408.5" y="169.6958">OrderId::fromString(orderId)</text><path d="M589,154.5625 L589,194.5625 L747,194.5625 L747,164.5625 L737,154.5625 L589,154.5625 " fill="#FEFFDD" style="stroke:#181818;stroke-width:0.5;"/><path d="M737,154.5625 L737,164.5625 L747,164.5625 L737,154.5625 " fill="#FEFFDD" style="stroke:#181818;stroke-width:0.5;"/><text fill="#000000" font-family="sans-serif" font-size="13" lengthAdjust="spacing" textLength="119" x="595" y="171.6294">Validate and convert</text><text fill="#000000" font-family="sans-serif" font-size="13" lengthAdjust="spacing" textLength="137" x="595" y="186.7622">string ID to ValueObject</text><path d="M10,206.8281 L71,206.8281 L71,213.9609 L61,223.9609 L10,223.9609 L10,206.8281 " fill="#EEEEEE" style="stroke:#000000;stroke-width:1.5;"/><rect fill="none" height="110.5313" style="stroke:#000000;stroke-width:1.5;" width="549.5" x="10" y="206.8281"/><text fill="#000000" font-family="sans-serif" font-size="13" font-weight="bold" lengthAdjust="spacing" textLength="16" x="25" y="219.895">alt</text><text fill="#000000" font-family="sans-serif" font-size="11" font-weight="bold" lengthAdjust="spacing" textLength="134" x="86" y="219.0386">[Invalid OrderId (empty)]</text><polygon fill="#181818" points="184.5,251.6602,174.5,255.6602,184.5,259.6602,180.5,255.6602" style="stroke:#181818;stroke-width:1.0;"/><line style="stroke:#181818;stroke-width:1.0;stroke-dasharray:2.0,2.0;" x1="178.5" x2="395.5" y1="255.6602" y2="255.6602"/><text fill="#000000" font-family="sans-serif" font-size="13" lengthAdjust="spacing" textLength="194" x="188" y="250.5942">throw InvalidArgumentException</text><path d="M406,228.9609 L406,268.9609 L544,268.9609 L544,238.9609 L534,228.9609 L406,228.9609 " fill="#FFC0CB" style="stroke:#181818;stroke-width:0.5;"/><path d="M534,228.9609 L534,238.9609 L544,238.9609 L534,228.9609 " fill="#FFC0CB" style="stroke:#181818;stroke-width:0.5;"/><text fill="#000000" font-family="sans-serif" font-size="13" lengthAdjust="spacing" textLength="104" x="412" y="246.0278">Exception thrown</text><text fill="#000000" font-family="sans-serif" font-size="13" lengthAdjust="spacing" textLength="117" x="412" y="261.1606">for invalid ID format</text><polygon fill="#181818" points="52.5,291.3594,42.5,295.3594,52.5,299.3594,48.5,295.3594" style="stroke:#181818;stroke-width:1.0;"/><line style="stroke:#181818;stroke-width:1.0;stroke-dasharray:2.0,2.0;" x1="46.5" x2="167.5" y1="295.3594" y2="295.3594"/><text fill="#000000" font-family="sans-serif" font-size="13" lengthAdjust="spacing" textLength="98" x="56" y="290.2935">400 Bad Request</text><polygon fill="#181818" points="156.5,305.3594,166.5,309.3594,156.5,313.3594,160.5,309.3594" style="stroke:#181818;stroke-width:1.0;"/><line style="stroke:#181818;stroke-width:1.0;stroke-dasharray:2.0,2.0;" x1="41.5" x2="162.5" y1="309.3594" y2="309.3594"/><polygon fill="#181818" points="572.5,341.4922,582.5,345.4922,572.5,349.4922,576.5,345.4922" style="stroke:#181818;stroke-width:1.0;"/><line style="stroke:#181818;stroke-width:1.0;" x1="396.5" x2="578.5" y1="345.4922" y2="345.4922"/><text fill="#000000" font-family="sans-serif" font-size="13" lengthAdjust="spacing" textLength="71" x="455" y="340.4263">get(orderId)</text><polygon fill="#181818" points="407.5,370.625,397.5,374.625,407.5,378.625,403.5,374.625" style="stroke:#181818;stroke-width:1.0;"/><line style="stroke:#181818;stroke-width:1.0;stroke-dasharray:2.0,2.0;" x1="401.5" x2="588.5" y1="374.625" y2="374.625"/><text fill="#000000" font-family="sans-serif" font-size="13" lengthAdjust="spacing" textLength="39" x="473.5" y="369.5591">order?</text><path d="M10,389.625 L71,389.625 L71,396.7578 L61,406.7578 L10,406.7578 L10,389.625 " fill="#EEEEEE" style="stroke:#000000;stroke-width:1.5;"/><rect fill="none" height="125.6641" style="stroke:#000000;stroke-width:1.5;" width="531.5" x="10" y="389.625"/><text fill="#000000" font-family="sans-serif" font-size="13" font-weight="bold" lengthAdjust="spacing" textLength="16" x="25" y="402.6919">alt</text><text fill="#000000" font-family="sans-serif" font-size="11" font-weight="bold" lengthAdjust="spacing" textLength="96" x="86" y="401.8354">[Order not found]</text><polygon fill="#181818" points="179.5,442.0234,169.5,446.0234,179.5,450.0234,175.5,446.0234" style="stroke:#181818;stroke-width:1.0;"/><line style="stroke:#181818;stroke-width:1.0;stroke-dasharray:2.0,2.0;" x1="173.5" x2="395.5" y1="446.0234" y2="446.0234"/><text fill="#000000" font-family="sans-serif" font-size="13" lengthAdjust="spacing" textLength="190" x="187.5" y="440.9575">throw OrderNotFoundException</text><path d="M401,411.7578 L401,466.7578 L526,466.7578 L526,421.7578 L516,411.7578 L401,411.7578 " fill="#FFC0CB" style="stroke:#181818;stroke-width:0.5;"/><path d="M516,411.7578 L516,421.7578 L526,421.7578 L516,411.7578 " fill="#FFC0CB" style="stroke:#181818;stroke-width:0.5;"/><text fill="#000000" font-family="sans-serif" font-size="13" lengthAdjust="spacing" textLength="104" x="407" y="428.8247">Exception thrown</text><text fill="#000000" font-family="sans-serif" font-size="13" lengthAdjust="spacing" textLength="69" x="407" y="443.9575">when order</text><text fill="#000000" font-family="sans-serif" font-size="13" lengthAdjust="spacing" textLength="82" x="407" y="459.0903">does not exist</text><polygon fill="#181818" points="52.5,489.2891,42.5,493.2891,52.5,497.2891,48.5,493.2891" style="stroke:#181818;stroke-width:1.0;"/><line style="stroke:#181818;stroke-width:1.0;stroke-dasharray:2.0,2.0;" x1="46.5" x2="167.5" y1="493.2891" y2="493.2891"/><text fill="#000000" font-family="sans-serif" font-size="13" lengthAdjust="spacing" textLength="86" x="62" y="488.2231">404 Not Found</text><polygon fill="#181818" points="156.5,503.2891,166.5,507.2891,156.5,511.2891,160.5,507.2891" style="stroke:#181818;stroke-width:1.0;"/><line style="stroke:#181818;stroke-width:1.0;stroke-dasharray:2.0,2.0;" x1="41.5" x2="162.5" y1="507.2891" y2="507.2891"/><line style="stroke:#181818;stroke-width:1.0;" x1="396.5" x2="438.5" y1="585.3203" y2="585.3203"/><line style="stroke:#181818;stroke-width:1.0;" x1="438.5" x2="438.5" y1="585.3203" y2="598.3203"/><line style="stroke:#181818;stroke-width:1.0;" x1="397.5" x2="438.5" y1="598.3203" y2="598.3203"/><polygon fill="#181818" points="407.5,594.3203,397.5,598.3203,407.5,602.3203,403.5,598.3203" style="stroke:#181818;stroke-width:1.0;"/><text fill="#000000" font-family="sans-serif" font-size="13" lengthAdjust="spacing" textLength="124" x="403.5" y="565.1216">Build GetOrderResult</text><text fill="#000000" font-family="sans-serif" font-size="13" lengthAdjust="spacing" textLength="102" x="414.5" y="580.2544">from Order entity</text><path d="M539,527.2891 L539,627.2891 L680,627.2891 L680,537.2891 L670,527.2891 L539,527.2891 " fill="#FEFFDD" style="stroke:#181818;stroke-width:0.5;"/><path d="M670,527.2891 L670,537.2891 L680,537.2891 L670,527.2891 " fill="#FEFFDD" style="stroke:#181818;stroke-width:0.5;"/><text fill="#000000" font-family="sans-serif" font-size="13" lengthAdjust="spacing" textLength="120" x="545" y="544.356">Extract order details:</text><text fill="#000000" font-family="sans-serif" font-size="13" lengthAdjust="spacing" textLength="18" x="545" y="559.4888">- id</text><text fill="#000000" font-family="sans-serif" font-size="13" lengthAdjust="spacing" textLength="87" x="545" y="574.6216">- amountCents</text><text fill="#000000" font-family="sans-serif" font-size="13" lengthAdjust="spacing" textLength="58" x="545" y="589.7544">- currency</text><text fill="#000000" font-family="sans-serif" font-size="13" lengthAdjust="spacing" textLength="42" x="545" y="604.8872">- status</text><text fill="#000000" font-family="sans-serif" font-size="13" lengthAdjust="spacing" textLength="63" x="545" y="620.02">- createdAt</text><polygon fill="#181818" points="179.5,650.2188,169.5,654.2188,179.5,658.2188,175.5,654.2188" style="stroke:#181818;stroke-width:1.0;"/><line style="stroke:#181818;stroke-width:1.0;stroke-dasharray:2.0,2.0;" x1="173.5" x2="395.5" y1="654.2188" y2="654.2188"/><text fill="#000000" font-family="sans-serif" font-size="13" lengthAdjust="spacing" textLength="91" x="237" y="649.1528">GetOrderResult</text><polygon fill="#181818" points="52.5,694.4844,42.5,698.4844,52.5,702.4844,48.5,698.4844" style="stroke:#181818;stroke-width:1.0;"/><line style="stroke:#181818;stroke-width:1.0;stroke-dasharray:2.0,2.0;" x1="46.5" x2="167.5" y1="698.4844" y2="698.4844"/><text fill="#000000" font-family="sans-serif" font-size="13" lengthAdjust="spacing" textLength="42" x="84" y="678.2856">200 OK</text><text fill="#000000" font-family="sans-serif" font-size="13" lengthAdjust="spacing" textLength="96" x="57" y="693.4185">(JSON response)</text><a href="https://mundiir.github.io/meetup-2025-orders-service/c4-component.svg" target="_top" title="https://mundiir.github.io/meetup-2025-orders-service/c4-component.svg" xlink:actuate="onRequest" xlink:href="https://mundiir.github.io/meetup-2025-orders-service/c4-component.svg" xlink:show="new" xlink:title="https://mundiir.github.io/meetup-2025-orders-service/c4-component.svg" xlink:type="simple"><text fill="#0000FF" font-family="sans-serif" font-size="10" lengthAdjust="spacing" text-decoration="underline" textLength="104" x="328.75" y="802.0635">Back to C4 Component</text></a><!--SRC=[bLJBRjim4BppAnR9eSv1iHku5nrQE6wIfeyuJTfUuY1Wg8tCMY9LSkK7YWBzY7vXlwHBIRPb8q6HYo0kTtPcXqk-W3EaaKlGmLUFC9Jy-Vlx3moA8jDAahO6FiebRyyrJK0gqhCgweNmKsqAwMGE7d-KQ1H-GkzbYeDCfmOK6aBNoZgsYqkP9DgayB8d1DUo3eQPvZpOPyY4xhCI1IUJLhgG7Dwhf0sj8MUp3DqUI0-RPGDROfRP-JPmrTOxQP8LiFblKAb3D5kW2d25XVMQfIq39AoQVBMKHeX6R_Iw9IE6ivClqBK1xhi_TV9BD4RXas95QuEBDT9YkBlJPcQds5aryBb4jppO57oi2R4AjYjLwFCaZX-SpQ_9iUyTMySEXB5SoeKACNoJcKv2QKQ2icQ6ZiR6LmWuVmjaGqg9e_llg8WFBYCuDxE0Mf501_E2M2QizKKx5j74sVaADt1fcREF9mk5HHWd1cuamNwXpJI6zMuDDcFpm1EZ6sfMnijS4cCJtFM7Wss7WvZgv6BeztfmB1C-MXvQluFUO3Zka4fd19fao-4m4p6aI1ixr_ZTUQdMKVjOAimRqU8CERMhzKLa8xYpabd_vsQLVs7fD6G_rylv14sjPcmIYxxYnONsppUq3om2JXlDpxHpxSnngRDa_HvTeIypdiCmlOqnpAPfkJMx9mjop5RtmSmaTURZiOb09-4hSnP5GqRwi5IbS_nGBSE_9qbb7NN8OfC1jNJjNl0jLU8HUyGJxXpnk8q-Z4td_VNeWZtm1J-UU20UTqayMExEmStDXAZmSRURiwbQkyEKtz_o_b3RReviP14TzOvUHVMR4tbqCwsmg_gHiZapCFMXdwKyw6eQBl2mpopDnksj-0S0]--></g></svg>