<?xml version="1.0" encoding="us-ascii" standalone="no"?><svg xmlns="http://www.w3.org/2000/svg" xmlns:xlink="http://www.w3.org/1999/xlink" contentStyleType="text/css" height="372px" preserveAspectRatio="none" style="width:495px;height:372px;background:#FFFFFF;" version="1.1" viewBox="0 0 495 372" width="495px" zoomAndPan="magnify"><defs/><g><rect fill="#FFFFFF" height="87.3984" style="stroke:#181818;stroke-width:1.0;" width="10" x="291.5" y="141.5625"/><rect fill="#FFFFFF" height="29.1328" style="stroke:#181818;stroke-width:1.0;" width="10" x="424.5" y="170.6953"/><line style="stroke:#181818;stroke-width:0.5;stroke-dasharray:5.0,5.0;" x1="26" x2="26" y1="81.2969" y2="276.0938"/><line style="stroke:#181818;stroke-width:0.5;stroke-dasharray:5.0,5.0;" x1="98" x2="98" y1="81.2969" y2="276.0938"/><line style="stroke:#181818;stroke-width:0.5;stroke-dasharray:5.0,5.0;" x1="296.5" x2="296.5" y1="81.2969" y2="276.0938"/><line style="stroke:#181818;stroke-width:0.5;stroke-dasharray:5.0,5.0;" x1="429.5" x2="429.5" y1="81.2969" y2="276.0938"/><text fill="#000000" font-family="sans-serif" font-size="14" lengthAdjust="spacing" textLength="37" x="5" y="77.9951">Client</text><ellipse cx="26.5" cy="13.5" fill="#E2E2F0" rx="8" ry="8" style="stroke:#181818;stroke-width:0.5;"/><path d="M26.5,21.5 L26.5,48.5 M13.5,29.5 L39.5,29.5 M26.5,48.5 L13.5,63.5 M26.5,48.5 L39.5,63.5 " fill="none" style="stroke:#181818;stroke-width:0.5;"/><text fill="#000000" font-family="sans-serif" font-size="14" lengthAdjust="spacing" textLength="37" x="5" y="288.0889">Client</text><ellipse cx="26.5" cy="299.8906" fill="#E2E2F0" rx="8" ry="8" style="stroke:#181818;stroke-width:0.5;"/><path d="M26.5,307.8906 L26.5,334.8906 M13.5,315.8906 L39.5,315.8906 M26.5,334.8906 L13.5,349.8906 M26.5,334.8906 L39.5,349.8906 " fill="none" style="stroke:#181818;stroke-width:0.5;"/><rect fill="#E2E2F0" height="30.2969" rx="2.5" ry="2.5" style="stroke:#181818;stroke-width:0.5;" width="79" x="59" y="50"/><text fill="#000000" font-family="sans-serif" font-size="14" lengthAdjust="spacing" textLength="65" x="66" y="69.9951">Controller</text><rect fill="#E2E2F0" height="30.2969" rx="2.5" ry="2.5" style="stroke:#181818;stroke-width:0.5;" width="79" x="59" y="275.0938"/><text fill="#000000" font-family="sans-serif" font-size="14" lengthAdjust="spacing" textLength="65" x="66" y="295.0889">Controller</text><rect fill="#E2E2F0" height="30.2969" rx="2.5" ry="2.5" style="stroke:#181818;stroke-width:0.5;" width="126" x="233.5" y="50"/><text fill="#000000" font-family="sans-serif" font-size="14" lengthAdjust="spacing" textLength="112" x="240.5" y="69.9951">GetOrderHandler</text><rect fill="#E2E2F0" height="30.2969" rx="2.5" ry="2.5" style="stroke:#181818;stroke-width:0.5;" width="126" x="233.5" y="275.0938"/><text fill="#000000" font-family="sans-serif" font-size="14" lengthAdjust="spacing" textLength="112" x="240.5" y="295.0889">GetOrderHandler</text><rect fill="#E2E2F0" height="30.2969" rx="2.5" ry="2.5" style="stroke:#181818;stroke-width:0.5;" width="120" x="369.5" y="50"/><text fill="#000000" font-family="sans-serif" font-size="14" lengthAdjust="spacing" textLength="106" x="376.5" y="69.9951">OrderRepository</text><rect fill="#E2E2F0" height="30.2969" rx="2.5" ry="2.5" style="stroke:#181818;stroke-width:0.5;" width="120" x="369.5" y="275.0938"/><text fill="#000000" font-family="sans-serif" font-size="14" lengthAdjust="spacing" textLength="106" x="376.5" y="295.0889">OrderRepository</text><rect fill="#FFFFFF" height="87.3984" style="stroke:#181818;stroke-width:1.0;" width="10" x="291.5" y="141.5625"/><rect fill="#FFFFFF" height="29.1328" style="stroke:#181818;stroke-width:1.0;" width="10" x="424.5" y="170.6953"/><polygon fill="#181818" points="86.5,108.4297,96.5,112.4297,86.5,116.4297,90.5,112.4297" style="stroke:#181818;stroke-width:1.0;"/><line style="stroke:#181818;stroke-width:1.0;" x1="26.5" x2="92.5" y1="112.4297" y2="112.4297"/><text fill="#000000" font-family="sans-serif" font-size="13" lengthAdjust="spacing" textLength="48" x="33.5" y="107.3638">Request</text><polygon fill="#181818" points="279.5,137.5625,289.5,141.5625,279.5,145.5625,283.5,141.5625" style="stroke:#181818;stroke-width:1.0;"/><line style="stroke:#181818;stroke-width:1.0;" x1="98.5" x2="285.5" y1="141.5625" y2="141.5625"/><text fill="#000000" font-family="sans-serif" font-size="13" lengthAdjust="spacing" textLength="174" x="105.5" y="136.4966">__invoke(GetOrderCommand)</text><polygon fill="#181818" points="412.5,166.6953,422.5,170.6953,412.5,174.6953,416.5,170.6953" style="stroke:#181818;stroke-width:1.0;"/><line style="stroke:#181818;stroke-width:1.0;" x1="301.5" x2="418.5" y1="170.6953" y2="170.6953"/><text fill="#000000" font-family="sans-serif" font-size="13" lengthAdjust="spacing" textLength="80" x="308.5" y="165.6294">call operation</text><polygon fill="#181818" points="312.5,195.8281,302.5,199.8281,312.5,203.8281,308.5,199.8281" style="stroke:#181818;stroke-width:1.0;"/><line style="stroke:#181818;stroke-width:1.0;stroke-dasharray:2.0,2.0;" x1="306.5" x2="428.5" y1="199.8281" y2="199.8281"/><text fill="#000000" font-family="sans-serif" font-size="13" lengthAdjust="spacing" textLength="33" x="318.5" y="194.7622">result</text><polygon fill="#181818" points="109.5,224.9609,99.5,228.9609,109.5,232.9609,105.5,228.9609" style="stroke:#181818;stroke-width:1.0;"/><line style="stroke:#181818;stroke-width:1.0;stroke-dasharray:2.0,2.0;" x1="103.5" x2="295.5" y1="228.9609" y2="228.9609"/><text fill="#000000" font-family="sans-serif" font-size="13" lengthAdjust="spacing" textLength="58" x="115.5" y="223.895">Response</text><polygon fill="#181818" points="37.5,254.0938,27.5,258.0938,37.5,262.0938,33.5,258.0938" style="stroke:#181818;stroke-width:1.0;"/><line style="stroke:#181818;stroke-width:1.0;stroke-dasharray:2.0,2.0;" x1="31.5" x2="97.5" y1="258.0938" y2="258.0938"/><text fill="#000000" font-family="sans-serif" font-size="13" lengthAdjust="spacing" textLength="36" x="43.5" y="253.0278">Result</text><a href="https://mundiir.github.io/meetup-2025-orders-service/c4-component.svg" target="_top" title="https://mundiir.github.io/meetup-2025-orders-service/c4-component.svg" xlink:actuate="onRequest" xlink:href="https://mundiir.github.io/meetup-2025-orders-service/c4-component.svg" xlink:show="new" xlink:title="https://mundiir.github.io/meetup-2025-orders-service/c4-component.svg" xlink:type="simple"><text fill="#0000FF" font-family="sans-serif" font-size="10" lengthAdjust="spacing" text-decoration="underline" textLength="104" x="194.75" y="361.6729">Back to C4 Component</text></a><!--SRC=[PP2_JiCm4CPtFyMf2p2aGLLPCY111XYGa2enLLLbdAErwlYCVOdKZOVW2NaIx2GbALtyxxxlVj_v2fwGuTLNwE4j89GoBZzVt_3WdD5AiYOBB_A8NWYfc3oKHgDbuQHdhRIJbc5MacLFng2VWGmmNizb4TMHdgMjJjhXV2RiH2jq57Ga7fECqbCGegT3TZ-15B32pmO3Y_4jAORM1MotshPqmEjJW9BgEXPlqaYwbOn_CSHmIFwUMO2InW0vzDrlZ9uXKxz1DYLw38rXKU5_yTZ_OeJWo0QSUawXfcCbM_S7dIL1n0SHnz9wlMTseSZpkh6Lrdw-qxnltkUQyXgH6vSjRXTtMPya2-XRhJ1NoqnH7TcnvpoqEtYKwW1CK2vZmA6msOXV]--></g></svg>