<?xml version="1.0" encoding="us-ascii" standalone="no"?><svg xmlns="http://www.w3.org/2000/svg" xmlns:xlink="http://www.w3.org/1999/xlink" contentStyleType="text/css" height="878px" preserveAspectRatio="none" style="width:812px;height:878px;background:#FFFFFF;" version="1.1" viewBox="0 0 812 878" width="812px" zoomAndPan="magnify"><defs/><g><rect fill="#DDDDDD" height="714.6563" style="stroke:#181818;stroke-width:0.5;" width="486.5" x="226.5" y="6"/><text fill="#000000" font-family="sans-serif" font-size="13" font-weight="bold" lengthAdjust="spacing" textLength="108" x="415.75" y="18.0669">Orders Service</text><rect fill="#FFFFFF" height="95.3984" style="stroke:#181818;stroke-width:1.0;" width="10" x="491.5" y="141.5625"/><rect fill="#FFFFFF" height="87.3984" style="stroke:#181818;stroke-width:1.0;" width="10" x="640.5" y="302.2266"/><rect fill="none" height="75.3984" style="stroke:#000000;stroke-width:1.5;" width="351.5" x="220.5" y="198.6953"/><rect fill="none" height="219.7344" style="stroke:#000000;stroke-width:1.5;" width="640.5" x="10" y="404.625"/><line style="stroke:#181818;stroke-width:0.5;stroke-dasharray:5.0,5.0;" x1="42" x2="42" y1="81.2969" y2="641.3594"/><line style="stroke:#181818;stroke-width:0.5;stroke-dasharray:5.0,5.0;" x1="290.5" x2="290.5" y1="81.2969" y2="641.3594"/><line style="stroke:#181818;stroke-width:0.5;stroke-dasharray:5.0,5.0;" x1="496" x2="496" y1="81.2969" y2="641.3594"/><line style="stroke:#181818;stroke-width:0.5;stroke-dasharray:5.0,5.0;" x1="645" x2="645" y1="81.2969" y2="641.3594"/><line style="stroke:#181818;stroke-width:0.5;stroke-dasharray:5.0,5.0;" x1="762" x2="762" y1="81.2969" y2="641.3594"/><text fill="#000000" font-family="sans-serif" font-size="14" lengthAdjust="spacing" textLength="39" x="20" y="77.9951">Client</text><ellipse cx="42.5" cy="13.5" fill="#AEE3FF" rx="8" ry="8" style="stroke:#181818;stroke-width:0.5;"/><path d="M42.5,21.5 L42.5,48.5 M29.5,29.5 L55.5,29.5 M42.5,48.5 L29.5,63.5 M42.5,48.5 L55.5,63.5 " fill="none" style="stroke:#181818;stroke-width:0.5;"/><text fill="#000000" font-family="sans-serif" font-size="14" lengthAdjust="spacing" textLength="39" x="20" y="653.3545">Client</text><ellipse cx="42.5" cy="665.1563" fill="#AEE3FF" rx="8" ry="8" style="stroke:#181818;stroke-width:0.5;"/><path d="M42.5,673.1563 L42.5,700.1563 M29.5,681.1563 L55.5,681.1563 M42.5,700.1563 L29.5,715.1563 M42.5,700.1563 L55.5,715.1563 " fill="none" style="stroke:#181818;stroke-width:0.5;"/><rect fill="#C7F9CC" height="30.2969" rx="2.5" ry="2.5" style="stroke:#181818;stroke-width:0.5;" width="120" x="230.5" y="50"/><text fill="#000000" font-family="sans-serif" font-size="14" lengthAdjust="spacing" textLength="106" x="237.5" y="69.9951">OrderController</text><rect fill="#C7F9CC" height="30.2969" rx="2.5" ry="2.5" style="stroke:#181818;stroke-width:0.5;" width="120" x="230.5" y="640.3594"/><text fill="#000000" font-family="sans-serif" font-size="14" lengthAdjust="spacing" textLength="106" x="237.5" y="660.3545">OrderController</text><rect fill="#FFF3B0" height="30.2969" rx="2.5" ry="2.5" style="stroke:#181818;stroke-width:0.5;" width="131" x="431" y="50"/><text fill="#000000" font-family="sans-serif" font-size="14" lengthAdjust="spacing" textLength="117" x="438" y="69.9951">GetOrderHandler</text><rect fill="#FFF3B0" height="30.2969" rx="2.5" ry="2.5" style="stroke:#181818;stroke-width:0.5;" width="131" x="431" y="640.3594"/><text fill="#000000" font-family="sans-serif" font-size="14" lengthAdjust="spacing" textLength="117" x="438" y="660.3545">GetOrderHandler</text><rect fill="#FFD6A5" height="30.2969" rx="2.5" ry="2.5" style="stroke:#181818;stroke-width:0.5;" width="127" x="582" y="50"/><text fill="#000000" font-family="sans-serif" font-size="14" lengthAdjust="spacing" textLength="113" x="589" y="69.9951">OrderRepository</text><rect fill="#FFD6A5" height="30.2969" rx="2.5" ry="2.5" style="stroke:#181818;stroke-width:0.5;" width="127" x="582" y="640.3594"/><text fill="#000000" font-family="sans-serif" font-size="14" lengthAdjust="spacing" textLength="113" x="589" y="660.3545">OrderRepository</text><rect fill="#FFD6A5" height="30.2969" rx="2.5" ry="2.5" style="stroke:#181818;stroke-width:0.5;" width="87" x="719" y="50"/><text fill="#000000" font-family="sans-serif" font-size="14" lengthAdjust="spacing" textLength="73" x="726" y="69.9951">Data Store</text><rect fill="#FFD6A5" height="30.2969" rx="2.5" ry="2.5" style="stroke:#181818;stroke-width:0.5;" width="87" x="719" y="640.3594"/><text fill="#000000" font-family="sans-serif" font-size="14" lengthAdjust="spacing" textLength="73" x="726" y="660.3545">Data Store</text><rect fill="#FFFFFF" height="95.3984" style="stroke:#181818;stroke-width:1.0;" width="10" x="491.5" y="141.5625"/><rect fill="#FFFFFF" height="87.3984" style="stroke:#181818;stroke-width:1.0;" width="10" x="640.5" y="302.2266"/><polygon fill="#181818" points="278.5,108.4297,288.5,112.4297,278.5,116.4297,282.5,112.4297" style="stroke:#181818;stroke-width:1.0;"/><line style="stroke:#181818;stroke-width:1.0;" x1="42.5" x2="284.5" y1="112.4297" y2="112.4297"/><text fill="#000000" font-family="sans-serif" font-size="13" font-weight="bold" lengthAdjust="spacing" textLength="9" x="49.5" y="107.3638">1</text><text fill="#000000" font-family="sans-serif" font-size="13" lengthAdjust="spacing" textLength="211" x="62.5" y="107.3638">GET /orders/{id} (Retrieve Order)</text><polygon fill="#181818" points="479.5,137.5625,489.5,141.5625,479.5,145.5625,483.5,141.5625" style="stroke:#181818;stroke-width:1.0;"/><line style="stroke:#181818;stroke-width:1.0;" x1="290.5" x2="485.5" y1="141.5625" y2="141.5625"/><text fill="#000000" font-family="sans-serif" font-size="13" font-weight="bold" lengthAdjust="spacing" textLength="9" x="297.5" y="136.4966">2</text><text fill="#000000" font-family="sans-serif" font-size="13" lengthAdjust="spacing" textLength="51" x="310.5" y="136.4966">Execute</text><line style="stroke:#181818;stroke-width:1.0;" x1="501.5" x2="543.5" y1="170.6953" y2="170.6953"/><line style="stroke:#181818;stroke-width:1.0;" x1="543.5" x2="543.5" y1="170.6953" y2="183.6953"/><line style="stroke:#181818;stroke-width:1.0;" x1="502.5" x2="543.5" y1="183.6953" y2="183.6953"/><polygon fill="#181818" points="512.5,179.6953,502.5,183.6953,512.5,187.6953,508.5,183.6953" style="stroke:#181818;stroke-width:1.0;"/><text fill="#000000" font-family="sans-serif" font-size="13" font-weight="bold" lengthAdjust="spacing" textLength="9" x="508.5" y="165.6294">3</text><text fill="#000000" font-family="sans-serif" font-size="13" lengthAdjust="spacing" textLength="88" x="521.5" y="165.6294">Validate input</text><path d="M220.5,198.6953 L284.5,198.6953 L284.5,205.8281 L274.5,215.8281 L220.5,215.8281 L220.5,198.6953 " fill="#EEEEEE" style="stroke:#000000;stroke-width:1.5;"/><rect fill="none" height="75.3984" style="stroke:#000000;stroke-width:1.5;" width="351.5" x="220.5" y="198.6953"/><text fill="#000000" font-family="sans-serif" font-size="13" font-weight="bold" lengthAdjust="spacing" textLength="19" x="235.5" y="211.7622">alt</text><text fill="#000000" font-family="sans-serif" font-size="11" font-weight="bold" lengthAdjust="spacing" textLength="126" x="299.5" y="210.9058">[Invalid input (4xx)]</text><polygon fill="#181818" points="301.5,232.9609,291.5,236.9609,301.5,240.9609,297.5,236.9609" style="stroke:#181818;stroke-width:1.0;"/><line style="stroke:#181818;stroke-width:1.0;stroke-dasharray:2.0,2.0;" x1="295.5" x2="495.5" y1="236.9609" y2="236.9609"/><text fill="#000000" font-family="sans-serif" font-size="13" font-weight="bold" lengthAdjust="spacing" textLength="9" x="307.5" y="231.895">4</text><text fill="#000000" font-family="sans-serif" font-size="13" lengthAdjust="spacing" textLength="94" x="320.5" y="231.895">Error response</text><polygon fill="#181818" points="484.5,262.0938,494.5,266.0938,484.5,270.0938,488.5,266.0938" style="stroke:#181818;stroke-width:1.0;"/><line style="stroke:#181818;stroke-width:1.0;stroke-dasharray:2.0,2.0;" x1="290.5" x2="490.5" y1="266.0938" y2="266.0938"/><text fill="#000000" font-family="sans-serif" font-size="13" font-weight="bold" lengthAdjust="spacing" textLength="9" x="297.5" y="261.0278">5</text><text fill="#000000" font-family="sans-serif" font-size="13" lengthAdjust="spacing" textLength="4" x="310.5" y="261.0278">&#160;</text><polygon fill="#181818" points="628.5,298.2266,638.5,302.2266,628.5,306.2266,632.5,302.2266" style="stroke:#181818;stroke-width:1.0;"/><line style="stroke:#181818;stroke-width:1.0;" x1="496.5" x2="634.5" y1="302.2266" y2="302.2266"/><text fill="#000000" font-family="sans-serif" font-size="13" font-weight="bold" lengthAdjust="spacing" textLength="9" x="503.5" y="297.1606">6</text><text fill="#000000" font-family="sans-serif" font-size="13" lengthAdjust="spacing" textLength="42" x="516.5" y="297.1606">get(id)</text><polygon fill="#181818" points="750.5,327.3594,760.5,331.3594,750.5,335.3594,754.5,331.3594" style="stroke:#181818;stroke-width:1.0;"/><line style="stroke:#181818;stroke-width:1.0;" x1="650.5" x2="756.5" y1="331.3594" y2="331.3594"/><text fill="#000000" font-family="sans-serif" font-size="13" font-weight="bold" lengthAdjust="spacing" textLength="9" x="657.5" y="326.2935">7</text><text fill="#000000" font-family="sans-serif" font-size="13" lengthAdjust="spacing" textLength="29" x="670.5" y="326.2935">read</text><polygon fill="#181818" points="661.5,356.4922,651.5,360.4922,661.5,364.4922,657.5,360.4922" style="stroke:#181818;stroke-width:1.0;"/><line style="stroke:#181818;stroke-width:1.0;stroke-dasharray:2.0,2.0;" x1="655.5" x2="761.5" y1="360.4922" y2="360.4922"/><text fill="#000000" font-family="sans-serif" font-size="13" font-weight="bold" lengthAdjust="spacing" textLength="9" x="667.5" y="355.4263">8</text><text fill="#000000" font-family="sans-serif" font-size="13" lengthAdjust="spacing" textLength="70" x="680.5" y="355.4263">Order | null</text><polygon fill="#181818" points="507.5,385.625,497.5,389.625,507.5,393.625,503.5,389.625" style="stroke:#181818;stroke-width:1.0;"/><line style="stroke:#181818;stroke-width:1.0;stroke-dasharray:2.0,2.0;" x1="501.5" x2="644.5" y1="389.625" y2="389.625"/><text fill="#000000" font-family="sans-serif" font-size="13" font-weight="bold" lengthAdjust="spacing" textLength="9" x="513.5" y="384.5591">9</text><text fill="#000000" font-family="sans-serif" font-size="13" lengthAdjust="spacing" textLength="70" x="526.5" y="384.5591">Order | null</text><path d="M10,404.625 L74,404.625 L74,411.7578 L64,421.7578 L10,421.7578 L10,404.625 " fill="#EEEEEE" style="stroke:#000000;stroke-width:1.5;"/><rect fill="none" height="219.7344" style="stroke:#000000;stroke-width:1.5;" width="640.5" x="10" y="404.625"/><text fill="#000000" font-family="sans-serif" font-size="13" font-weight="bold" lengthAdjust="spacing" textLength="19" x="25" y="417.6919">alt</text><text fill="#000000" font-family="sans-serif" font-size="11" font-weight="bold" lengthAdjust="spacing" textLength="209" x="89" y="416.8354">[OrderNotFoundException (404)]</text><polygon fill="#181818" points="301.5,438.8906,291.5,442.8906,301.5,446.8906,297.5,442.8906" style="stroke:#181818;stroke-width:1.0;"/><line style="stroke:#181818;stroke-width:1.0;stroke-dasharray:2.0,2.0;" x1="295.5" x2="495.5" y1="442.8906" y2="442.8906"/><text fill="#000000" font-family="sans-serif" font-size="13" font-weight="bold" lengthAdjust="spacing" textLength="18" x="307.5" y="437.8247">10</text><text fill="#000000" font-family="sans-serif" font-size="13" lengthAdjust="spacing" textLength="160" x="329.5" y="437.8247">OrderNotFoundException</text><polygon fill="#181818" points="53.5,468.0234,43.5,472.0234,53.5,476.0234,49.5,472.0234" style="stroke:#181818;stroke-width:1.0;"/><line style="stroke:#181818;stroke-width:1.0;stroke-dasharray:2.0,2.0;" x1="47.5" x2="289.5" y1="472.0234" y2="472.0234"/><text fill="#000000" font-family="sans-serif" font-size="13" font-weight="bold" lengthAdjust="spacing" textLength="18" x="59.5" y="466.9575">11</text><text fill="#000000" font-family="sans-serif" font-size="13" lengthAdjust="spacing" textLength="94" x="81.5" y="466.9575">404 Not Found</text><polygon fill="#181818" points="278.5,497.1563,288.5,501.1563,278.5,505.1563,282.5,501.1563" style="stroke:#181818;stroke-width:1.0;"/><line style="stroke:#181818;stroke-width:1.0;stroke-dasharray:2.0,2.0;" x1="42.5" x2="284.5" y1="501.1563" y2="501.1563"/><text fill="#000000" font-family="sans-serif" font-size="13" font-weight="bold" lengthAdjust="spacing" textLength="18" x="49.5" y="496.0903">12</text><text fill="#000000" font-family="sans-serif" font-size="13" lengthAdjust="spacing" textLength="4" x="71.5" y="496.0903">&#160;</text><line style="stroke:#000000;stroke-width:1.0;stroke-dasharray:2.0,2.0;" x1="10" x2="650.5" y1="510.1563" y2="510.1563"/><text fill="#000000" font-family="sans-serif" font-size="11" font-weight="bold" lengthAdjust="spacing" textLength="88" x="15" y="520.3667">[Found (200)]</text><line style="stroke:#181818;stroke-width:1.0;" x1="496.5" x2="538.5" y1="545.0938" y2="545.0938"/><line style="stroke:#181818;stroke-width:1.0;" x1="538.5" x2="538.5" y1="545.0938" y2="558.0938"/><line style="stroke:#181818;stroke-width:1.0;" x1="497.5" x2="538.5" y1="558.0938" y2="558.0938"/><polygon fill="#181818" points="507.5,554.0938,497.5,558.0938,507.5,562.0938,503.5,558.0938" style="stroke:#181818;stroke-width:1.0;"/><text fill="#000000" font-family="sans-serif" font-size="13" font-weight="bold" lengthAdjust="spacing" textLength="18" x="503.5" y="540.0278">13</text><text fill="#000000" font-family="sans-serif" font-size="13" lengthAdjust="spacing" textLength="113" x="525.5" y="540.0278">Map Order &#8594; DTO</text><polygon fill="#181818" points="301.5,583.2266,291.5,587.2266,301.5,591.2266,297.5,587.2266" style="stroke:#181818;stroke-width:1.0;"/><line style="stroke:#181818;stroke-width:1.0;stroke-dasharray:2.0,2.0;" x1="295.5" x2="495.5" y1="587.2266" y2="587.2266"/><text fill="#000000" font-family="sans-serif" font-size="13" font-weight="bold" lengthAdjust="spacing" textLength="18" x="307.5" y="582.1606">14</text><text fill="#000000" font-family="sans-serif" font-size="13" lengthAdjust="spacing" textLength="27" x="329.5" y="582.1606">DTO</text><polygon fill="#181818" points="53.5,612.3594,43.5,616.3594,53.5,620.3594,49.5,616.3594" style="stroke:#181818;stroke-width:1.0;"/><line style="stroke:#181818;stroke-width:1.0;stroke-dasharray:2.0,2.0;" x1="47.5" x2="289.5" y1="616.3594" y2="616.3594"/><text fill="#000000" font-family="sans-serif" font-size="13" font-weight="bold" lengthAdjust="spacing" textLength="18" x="59.5" y="611.2935">15</text><text fill="#000000" font-family="sans-serif" font-size="13" lengthAdjust="spacing" textLength="92" x="81.5" y="611.2935">200 OK (JSON)</text><a href="https://mundiir.github.io/meetup-2025-orders-service/c4-component.svg" target="_top" title="https://mundiir.github.io/meetup-2025-orders-service/c4-component.svg" xlink:actuate="onRequest" xlink:href="https://mundiir.github.io/meetup-2025-orders-service/c4-component.svg" xlink:show="new" xlink:title="https://mundiir.github.io/meetup-2025-orders-service/c4-component.svg" xlink:type="simple"><text fill="#0000FF" font-family="sans-serif" font-size="10" lengthAdjust="spacing" text-decoration="underline" textLength="114" x="348" y="867.7197">Back to C4 Component</text></a><rect fill="#DDDDDD" height="111.7813" id="_legend" rx="7.5" ry="7.5" style="stroke:#000000;stroke-width:1.0;" width="398" x="12" y="733.6563"/><text fill="#000000" font-family="sans-serif" font-size="14" lengthAdjust="spacing" textLength="36" x="21" y="753.6514">Layer</text><text fill="#000000" font-family="sans-serif" font-size="14" lengthAdjust="spacing" textLength="51" x="350" y="753.6514">Sample</text><text fill="#000000" font-family="sans-serif" font-size="14" lengthAdjust="spacing" textLength="88" x="21" y="769.9482">Presentation</text><rect fill="#C7F9CC" height="16.2969" style="stroke:none;stroke-width:1.0;" width="59" x="346" y="756.9531"/><text fill="#000000" font-family="sans-serif" font-size="14" lengthAdjust="spacing" textLength="4" x="346" y="769.9482">&#160;</text><text fill="#000000" font-family="sans-serif" font-size="14" lengthAdjust="spacing" textLength="75" x="21" y="786.2451">Application</text><rect fill="#FFF3B0" height="16.2969" style="stroke:none;stroke-width:1.0;" width="59" x="346" y="773.25"/><text fill="#000000" font-family="sans-serif" font-size="14" lengthAdjust="spacing" textLength="4" x="346" y="786.2451">&#160;</text><text fill="#000000" font-family="sans-serif" font-size="14" lengthAdjust="spacing" textLength="53" x="21" y="802.542">Domain</text><rect fill="#E8EAED" height="16.2969" style="stroke:none;stroke-width:1.0;" width="59" x="346" y="789.5469"/><text fill="#000000" font-family="sans-serif" font-size="14" lengthAdjust="spacing" textLength="4" x="346" y="802.542">&#160;</text><text fill="#000000" font-family="sans-serif" font-size="14" lengthAdjust="spacing" textLength="321" x="21" y="818.8389">Infrastructure (Adapters/Persistence/3rd Party)</text><rect fill="#FFD6A5" height="16.2969" style="stroke:none;stroke-width:1.0;" width="59" x="346" y="805.8438"/><text fill="#000000" font-family="sans-serif" font-size="14" lengthAdjust="spacing" textLength="4" x="346" y="818.8389">&#160;</text><text fill="#000000" font-family="sans-serif" font-size="14" lengthAdjust="spacing" textLength="55" x="21" y="835.1357">External</text><rect fill="#AEE3FF" height="16.2969" style="stroke:none;stroke-width:1.0;" width="59" x="346" y="822.1406"/><text fill="#000000" font-family="sans-serif" font-size="14" lengthAdjust="spacing" textLength="4" x="346" y="835.1357">&#160;</text><line style="stroke:#000000;stroke-width:1.0;" x1="17" x2="405" y1="740.6563" y2="740.6563"/><line style="stroke:#000000;stroke-width:1.0;" x1="17" x2="405" y1="756.9531" y2="756.9531"/><line style="stroke:#000000;stroke-width:1.0;" x1="17" x2="405" y1="773.25" y2="773.25"/><line style="stroke:#000000;stroke-width:1.0;" x1="17" x2="405" y1="789.5469" y2="789.5469"/><line style="stroke:#000000;stroke-width:1.0;" x1="17" x2="405" y1="805.8438" y2="805.8438"/><line style="stroke:#000000;stroke-width:1.0;" x1="17" x2="405" y1="822.1406" y2="822.1406"/><line style="stroke:#000000;stroke-width:1.0;" x1="17" x2="405" y1="838.4375" y2="838.4375"/><line style="stroke:#000000;stroke-width:1.0;" x1="17" x2="17" y1="740.6563" y2="838.4375"/><line style="stroke:#000000;stroke-width:1.0;" x1="346" x2="346" y1="740.6563" y2="838.4375"/><line style="stroke:#000000;stroke-width:1.0;" x1="405" x2="405" y1="740.6563" y2="838.4375"/><!--SRC=[dLJBJjj05DtFLrp1eeagnn64FaA551oRqWU92Ee6iHZiInZLdfcEnsbGKwchVa3LB-oNz8ud0MfS5TKBIvvxvjnp7pvFu0WjJ4o61dvz-map_5IXJ14w1daEgSeG92-mt0UjZ2tXATZFAhXMUf-2kJAOGOvpb5cNySegMHMNQ1ZZgLK6eboWjB0zYkFT967iKYrXgqvMKYQp42bkmVQuVXY0viQAL6Wkrv8Y9QrHUKxYjgFdoSieQg18V0rypMLMev8asJtijt6TebQb85Kt3ZL-DjfZf1f84cFtmLjZRZdC24ZQU0dki_wwlSRMPGK7JPL3E8hF85HrXU4NaNs5pYbQ8t217jjbpSA8fL754E8bffL5rqMnu1QR2CQQXRUnVE2voDnj8NLb6Syj7Ck5E_Gdq1aibrtgrGEojifYOsYY1akjP8bqAyE_oWF2sSf8r-5MhOs9366EjYFS3cqe6mZMd26Ht4vcIEbunkuc5RIby4k-0bdb-KEwjWR-SUDUkKrjTMlhmnDb4rN9B5wcgArGadhS7pown-qS_-hrWuqYQh-YGw3iG8HGCzwRIrwYFuFEJh_VAh2b8U-vtdZ5znymFfiyjZ0F_UygI29CtaBdpMnoqlLBvKs7lEVAqkKLlECtzQnclD0vmge-dDAw4W6l9x62LsiJELY7Hrhd8hsBUlFOHCUguC87uXVnA1vl0iVool3IcYgbNf9JZZAkhVlXf_GIfNN-6UwQ3APaApVTDRMpZWr3l2Iy97zr8M-EBeIk5_Ewl2kb20BdvzVMwd8OXWNDIWZJcmjxNLtsX0eBf5dgOAU_inTunmbAxwbXEWXILT2FIiNtoiKS3ddw4Qo2Q03H9d1nyHi0]--></g></svg>