<?xml version="1.0" encoding="us-ascii" standalone="no"?><svg xmlns="http://www.w3.org/2000/svg" xmlns:xlink="http://www.w3.org/1999/xlink" contentStyleType="text/css" height="1723px" preserveAspectRatio="none" style="width:1871px;height:1723px;background:#FFFFFF;" version="1.1" viewBox="0 0 1871 1723" width="1871px" zoomAndPan="magnify"><defs/><g><rect fill="#DDDDDD" height="1559.5938" style="stroke:#181818;stroke-width:0.5;" width="1242.5" x="225.5" y="6"/><text fill="#000000" font-family="sans-serif" font-size="13" font-weight="bold" lengthAdjust="spacing" textLength="108" x="792.75" y="18.0669">Orders Service</text><rect fill="#FFFFFF" height="1205.9375" style="stroke:#181818;stroke-width:1.0;" width="10" x="528.5" y="141.5625"/><rect fill="#FFFFFF" height="87.3984" style="stroke:#181818;stroke-width:1.0;" width="10" x="915.5" y="1172.8359"/><rect fill="#FFFFFF" height="29.1328" style="stroke:#181818;stroke-width:1.0;" width="10" x="1037.5" y="504.8281"/><rect fill="#FFFFFF" height="29.1328" style="stroke:#181818;stroke-width:1.0;" width="10" x="1146.5" y="563.0938"/><rect fill="#FFFFFF" height="87.3984" style="stroke:#181818;stroke-width:1.0;" width="10" x="1261.5" y="346.1641"/><rect fill="#FFFFFF" height="223.7344" style="stroke:#181818;stroke-width:1.0;" width="10" x="1392.5" y="823.7656"/><rect fill="none" height="119.3359" style="stroke:#000000;stroke-width:1.5;" width="817" x="40" y="198.6953"/><rect fill="none" height="636.0703" style="stroke:#000000;stroke-width:1.5;" width="1844" x="20" y="704.4297"/><rect fill="none" height="489.7344" style="stroke:#000000;stroke-width:1.5;" width="1824" x="30" y="785.5"/><rect fill="none" height="179.6016" style="stroke:#000000;stroke-width:1.5;" width="1697" x="50" y="867.8984"/><rect fill="none" height="17.1328" style="stroke:#000000;stroke-width:1.5;" width="93" x="60" y="1023.3672"/><rect fill="none" height="206.7344" style="stroke:#000000;stroke-width:1.5;" width="1804" x="40" y="1061.5"/><line style="stroke:#181818;stroke-width:0.5;stroke-dasharray:5.0,5.0;" x1="72" x2="72" y1="81.2969" y2="1486.2969"/><line style="stroke:#181818;stroke-width:0.5;stroke-dasharray:5.0,5.0;" x1="289.5" x2="289.5" y1="81.2969" y2="1486.2969"/><line style="stroke:#181818;stroke-width:0.5;stroke-dasharray:5.0,5.0;" x1="533.5" x2="533.5" y1="81.2969" y2="1486.2969"/><line style="stroke:#181818;stroke-width:0.5;stroke-dasharray:5.0,5.0;" x1="820" x2="820" y1="81.2969" y2="1486.2969"/><line style="stroke:#181818;stroke-width:0.5;stroke-dasharray:5.0,5.0;" x1="920" x2="920" y1="81.2969" y2="1486.2969"/><line style="stroke:#181818;stroke-width:0.5;stroke-dasharray:5.0,5.0;" x1="1042" x2="1042" y1="81.2969" y2="1486.2969"/><line style="stroke:#181818;stroke-width:0.5;stroke-dasharray:5.0,5.0;" x1="1151" x2="1151" y1="81.2969" y2="1486.2969"/><line style="stroke:#181818;stroke-width:0.5;stroke-dasharray:5.0,5.0;" x1="1266" x2="1266" y1="81.2969" y2="1486.2969"/><line style="stroke:#181818;stroke-width:0.5;stroke-dasharray:5.0,5.0;" x1="1397" x2="1397" y1="81.2969" y2="1486.2969"/><line style="stroke:#181818;stroke-width:0.5;stroke-dasharray:5.0,5.0;" x1="1536" x2="1536" y1="81.2969" y2="1486.2969"/><line style="stroke:#181818;stroke-width:0.5;stroke-dasharray:5.0,5.0;" x1="1673" x2="1673" y1="81.2969" y2="1486.2969"/><line style="stroke:#181818;stroke-width:0.5;stroke-dasharray:5.0,5.0;" x1="1790" x2="1790" y1="81.2969" y2="1486.2969"/><text fill="#000000" font-family="sans-serif" font-size="14" lengthAdjust="spacing" textLength="39" x="50" y="77.9951">Client</text><ellipse cx="72.5" cy="13.5" fill="#AEE3FF" rx="8" ry="8" style="stroke:#181818;stroke-width:0.5;"/><path d="M72.5,21.5 L72.5,48.5 M59.5,29.5 L85.5,29.5 M72.5,48.5 L59.5,63.5 M72.5,48.5 L85.5,63.5 " fill="none" style="stroke:#181818;stroke-width:0.5;"/><text fill="#000000" font-family="sans-serif" font-size="14" lengthAdjust="spacing" textLength="39" x="50" y="1498.292">Client</text><ellipse cx="72.5" cy="1510.0938" fill="#AEE3FF" rx="8" ry="8" style="stroke:#181818;stroke-width:0.5;"/><path d="M72.5,1518.0938 L72.5,1545.0938 M59.5,1526.0938 L85.5,1526.0938 M72.5,1545.0938 L59.5,1560.0938 M72.5,1545.0938 L85.5,1560.0938 " fill="none" style="stroke:#181818;stroke-width:0.5;"/><rect fill="#C7F9CC" height="30.2969" rx="2.5" ry="2.5" style="stroke:#181818;stroke-width:0.5;" width="120" x="229.5" y="50"/><text fill="#000000" font-family="sans-serif" font-size="14" lengthAdjust="spacing" textLength="106" x="236.5" y="69.9951">OrderController</text><rect fill="#C7F9CC" height="30.2969" rx="2.5" ry="2.5" style="stroke:#181818;stroke-width:0.5;" width="120" x="229.5" y="1485.2969"/><text fill="#000000" font-family="sans-serif" font-size="14" lengthAdjust="spacing" textLength="106" x="236.5" y="1505.292">OrderController</text><rect fill="#FFF3B0" height="30.2969" rx="2.5" ry="2.5" style="stroke:#181818;stroke-width:0.5;" width="152" x="457.5" y="50"/><text fill="#000000" font-family="sans-serif" font-size="14" lengthAdjust="spacing" textLength="138" x="464.5" y="69.9951">CreateOrderHandler</text><rect fill="#FFF3B0" height="30.2969" rx="2.5" ry="2.5" style="stroke:#181818;stroke-width:0.5;" width="152" x="457.5" y="1485.2969"/><text fill="#000000" font-family="sans-serif" font-size="14" lengthAdjust="spacing" textLength="138" x="464.5" y="1505.292">CreateOrderHandler</text><rect fill="#E8EAED" height="30.2969" rx="2.5" ry="2.5" style="stroke:#181818;stroke-width:0.5;" width="53" x="794" y="50"/><text fill="#000000" font-family="sans-serif" font-size="14" lengthAdjust="spacing" textLength="39" x="801" y="69.9951">Order</text><rect fill="#E8EAED" height="30.2969" rx="2.5" ry="2.5" style="stroke:#181818;stroke-width:0.5;" width="53" x="794" y="1485.2969"/><text fill="#000000" font-family="sans-serif" font-size="14" lengthAdjust="spacing" textLength="39" x="801" y="1505.292">Order</text><rect fill="#FFD6A5" height="30.2969" rx="2.5" ry="2.5" style="stroke:#181818;stroke-width:0.5;" width="127" x="857" y="50"/><text fill="#000000" font-family="sans-serif" font-size="14" lengthAdjust="spacing" textLength="113" x="864" y="69.9951">OrderRepository</text><rect fill="#FFD6A5" height="30.2969" rx="2.5" ry="2.5" style="stroke:#181818;stroke-width:0.5;" width="127" x="857" y="1485.2969"/><text fill="#000000" font-family="sans-serif" font-size="14" lengthAdjust="spacing" textLength="113" x="864" y="1505.292">OrderRepository</text><rect fill="#FFD6A5" height="30.2969" rx="2.5" ry="2.5" style="stroke:#181818;stroke-width:0.5;" width="97" x="994" y="50"/><text fill="#000000" font-family="sans-serif" font-size="14" lengthAdjust="spacing" textLength="83" x="1001" y="69.9951">FxConverter</text><rect fill="#FFD6A5" height="30.2969" rx="2.5" ry="2.5" style="stroke:#181818;stroke-width:0.5;" width="97" x="994" y="1485.2969"/><text fill="#000000" font-family="sans-serif" font-size="14" lengthAdjust="spacing" textLength="83" x="1001" y="1505.292">FxConverter</text><rect fill="#FFD6A5" height="30.2969" rx="2.5" ry="2.5" style="stroke:#181818;stroke-width:0.5;" width="101" x="1101" y="50"/><text fill="#000000" font-family="sans-serif" font-size="14" lengthAdjust="spacing" textLength="87" x="1108" y="69.9951">RiskChecker</text><rect fill="#FFD6A5" height="30.2969" rx="2.5" ry="2.5" style="stroke:#181818;stroke-width:0.5;" width="101" x="1101" y="1485.2969"/><text fill="#000000" font-family="sans-serif" font-size="14" lengthAdjust="spacing" textLength="87" x="1108" y="1505.292">RiskChecker</text><rect fill="#FFD6A5" height="30.2969" rx="2.5" ry="2.5" style="stroke:#181818;stroke-width:0.5;" width="109" x="1212" y="50"/><text fill="#000000" font-family="sans-serif" font-size="14" lengthAdjust="spacing" textLength="95" x="1219" y="69.9951">PromoService</text><rect fill="#FFD6A5" height="30.2969" rx="2.5" ry="2.5" style="stroke:#181818;stroke-width:0.5;" width="109" x="1212" y="1485.2969"/><text fill="#000000" font-family="sans-serif" font-size="14" lengthAdjust="spacing" textLength="95" x="1219" y="1505.292">PromoService</text><rect fill="#FFD6A5" height="30.2969" rx="2.5" ry="2.5" style="stroke:#181818;stroke-width:0.5;" width="133" x="1331" y="50"/><text fill="#000000" font-family="sans-serif" font-size="14" lengthAdjust="spacing" textLength="119" x="1338" y="69.9951">PaymentGateway</text><rect fill="#FFD6A5" height="30.2969" rx="2.5" ry="2.5" style="stroke:#181818;stroke-width:0.5;" width="133" x="1331" y="1485.2969"/><text fill="#000000" font-family="sans-serif" font-size="14" lengthAdjust="spacing" textLength="119" x="1338" y="1505.292">PaymentGateway</text><rect fill="#AEE3FF" height="30.2969" rx="2.5" ry="2.5" style="stroke:#181818;stroke-width:0.5;" width="125" x="1474" y="50"/><text fill="#000000" font-family="sans-serif" font-size="14" lengthAdjust="spacing" textLength="111" x="1481" y="69.9951">Promo 3rd&#8209;party</text><rect fill="#AEE3FF" height="30.2969" rx="2.5" ry="2.5" style="stroke:#181818;stroke-width:0.5;" width="125" x="1474" y="1485.2969"/><text fill="#000000" font-family="sans-serif" font-size="14" lengthAdjust="spacing" textLength="111" x="1481" y="1505.292">Promo 3rd&#8209;party</text><rect fill="#AEE3FF" height="30.2969" rx="2.5" ry="2.5" style="stroke:#181818;stroke-width:0.5;" width="128" x="1609" y="50"/><text fill="#000000" font-family="sans-serif" font-size="14" lengthAdjust="spacing" textLength="114" x="1616" y="69.9951">Payment Service</text><rect fill="#AEE3FF" height="30.2969" rx="2.5" ry="2.5" style="stroke:#181818;stroke-width:0.5;" width="128" x="1609" y="1485.2969"/><text fill="#000000" font-family="sans-serif" font-size="14" lengthAdjust="spacing" textLength="114" x="1616" y="1505.292">Payment Service</text><rect fill="#FFD6A5" height="30.2969" rx="2.5" ry="2.5" style="stroke:#181818;stroke-width:0.5;" width="87" x="1747" y="50"/><text fill="#000000" font-family="sans-serif" font-size="14" lengthAdjust="spacing" textLength="73" x="1754" y="69.9951">Data Store</text><rect fill="#FFD6A5" height="30.2969" rx="2.5" ry="2.5" style="stroke:#181818;stroke-width:0.5;" width="87" x="1747" y="1485.2969"/><text fill="#000000" font-family="sans-serif" font-size="14" lengthAdjust="spacing" textLength="73" x="1754" y="1505.292">Data Store</text><rect fill="#FFFFFF" height="1205.9375" style="stroke:#181818;stroke-width:1.0;" width="10" x="528.5" y="141.5625"/><rect fill="#FFFFFF" height="87.3984" style="stroke:#181818;stroke-width:1.0;" width="10" x="915.5" y="1172.8359"/><rect fill="#FFFFFF" height="29.1328" style="stroke:#181818;stroke-width:1.0;" width="10" x="1037.5" y="504.8281"/><rect fill="#FFFFFF" height="29.1328" style="stroke:#181818;stroke-width:1.0;" width="10" x="1146.5" y="563.0938"/><rect fill="#FFFFFF" height="87.3984" style="stroke:#181818;stroke-width:1.0;" width="10" x="1261.5" y="346.1641"/><rect fill="#FFFFFF" height="223.7344" style="stroke:#181818;stroke-width:1.0;" width="10" x="1392.5" y="823.7656"/><polygon fill="#181818" points="277.5,108.4297,287.5,112.4297,277.5,116.4297,281.5,112.4297" style="stroke:#181818;stroke-width:1.0;"/><line style="stroke:#181818;stroke-width:1.0;" x1="72.5" x2="283.5" y1="112.4297" y2="112.4297"/><text fill="#000000" font-family="sans-serif" font-size="13" font-weight="bold" lengthAdjust="spacing" textLength="9" x="79.5" y="107.3638">1</text><text fill="#000000" font-family="sans-serif" font-size="13" lengthAdjust="spacing" textLength="180" x="92.5" y="107.3638">POST /orders (Create Order)</text><polygon fill="#181818" points="516.5,137.5625,526.5,141.5625,516.5,145.5625,520.5,141.5625" style="stroke:#181818;stroke-width:1.0;"/><line style="stroke:#181818;stroke-width:1.0;" x1="289.5" x2="522.5" y1="141.5625" y2="141.5625"/><text fill="#000000" font-family="sans-serif" font-size="13" font-weight="bold" lengthAdjust="spacing" textLength="9" x="296.5" y="136.4966">2</text><text fill="#000000" font-family="sans-serif" font-size="13" lengthAdjust="spacing" textLength="51" x="309.5" y="136.4966">Execute</text><line style="stroke:#181818;stroke-width:1.0;" x1="538.5" x2="580.5" y1="170.6953" y2="170.6953"/><line style="stroke:#181818;stroke-width:1.0;" x1="580.5" x2="580.5" y1="170.6953" y2="183.6953"/><line style="stroke:#181818;stroke-width:1.0;" x1="539.5" x2="580.5" y1="183.6953" y2="183.6953"/><polygon fill="#181818" points="549.5,179.6953,539.5,183.6953,549.5,187.6953,545.5,183.6953" style="stroke:#181818;stroke-width:1.0;"/><text fill="#000000" font-family="sans-serif" font-size="13" font-weight="bold" lengthAdjust="spacing" textLength="9" x="545.5" y="165.6294">3</text><text fill="#000000" font-family="sans-serif" font-size="13" lengthAdjust="spacing" textLength="180" x="558.5" y="165.6294">Validate currency &amp; amount</text><path d="M40,198.6953 L104,198.6953 L104,205.8281 L94,215.8281 L40,215.8281 L40,198.6953 " fill="#EEEEEE" style="stroke:#000000;stroke-width:1.5;"/><rect fill="none" height="119.3359" style="stroke:#000000;stroke-width:1.5;" width="817" x="40" y="198.6953"/><text fill="#000000" font-family="sans-serif" font-size="13" font-weight="bold" lengthAdjust="spacing" textLength="19" x="55" y="211.7622">alt</text><text fill="#000000" font-family="sans-serif" font-size="11" font-weight="bold" lengthAdjust="spacing" textLength="212" x="119" y="210.9058">[UnsupportedCurrencyException]</text><polygon fill="#181818" points="300.5,232.9609,290.5,236.9609,300.5,240.9609,296.5,236.9609" style="stroke:#181818;stroke-width:1.0;"/><line style="stroke:#181818;stroke-width:1.0;stroke-dasharray:2.0,2.0;" x1="294.5" x2="527.5" y1="236.9609" y2="236.9609"/><text fill="#000000" font-family="sans-serif" font-size="13" font-weight="bold" lengthAdjust="spacing" textLength="9" x="306.5" y="231.895">4</text><text fill="#000000" font-family="sans-serif" font-size="13" lengthAdjust="spacing" textLength="202" x="319.5" y="231.895">UnsupportedCurrencyException</text><polygon fill="#181818" points="83.5,262.0938,73.5,266.0938,83.5,270.0938,79.5,266.0938" style="stroke:#181818;stroke-width:1.0;"/><line style="stroke:#181818;stroke-width:1.0;stroke-dasharray:2.0,2.0;" x1="77.5" x2="288.5" y1="266.0938" y2="266.0938"/><text fill="#000000" font-family="sans-serif" font-size="13" font-weight="bold" lengthAdjust="spacing" textLength="9" x="89.5" y="261.0278">5</text><text fill="#000000" font-family="sans-serif" font-size="13" lengthAdjust="spacing" textLength="170" x="102.5" y="261.0278">400 Unsupported currency</text><line style="stroke:#000000;stroke-width:1.0;stroke-dasharray:2.0,2.0;" x1="40" x2="857" y1="275.0938" y2="275.0938"/><text fill="#000000" font-family="sans-serif" font-size="11" font-weight="bold" lengthAdjust="spacing" textLength="101" x="45" y="285.3042">[Valid currency]</text><polygon fill="#181818" points="808.5,306.0313,818.5,310.0313,808.5,314.0313,812.5,310.0313" style="stroke:#181818;stroke-width:1.0;"/><line style="stroke:#181818;stroke-width:1.0;" x1="538.5" x2="814.5" y1="310.0313" y2="310.0313"/><text fill="#000000" font-family="sans-serif" font-size="13" font-weight="bold" lengthAdjust="spacing" textLength="9" x="545.5" y="304.9653">6</text><text fill="#000000" font-family="sans-serif" font-size="13" lengthAdjust="spacing" textLength="164" x="558.5" y="304.9653">create(amount, currency)</text><polygon fill="#181818" points="1249.5,342.1641,1259.5,346.1641,1249.5,350.1641,1253.5,346.1641" style="stroke:#181818;stroke-width:1.0;"/><line style="stroke:#181818;stroke-width:1.0;" x1="538.5" x2="1255.5" y1="346.1641" y2="346.1641"/><text fill="#000000" font-family="sans-serif" font-size="13" font-weight="bold" lengthAdjust="spacing" textLength="9" x="545.5" y="341.0981">7</text><text fill="#000000" font-family="sans-serif" font-size="13" lengthAdjust="spacing" textLength="189" x="558.5" y="341.0981">getDiscountPercent (0-100%)</text><polygon fill="#181818" points="1524.5,371.2969,1534.5,375.2969,1524.5,379.2969,1528.5,375.2969" style="stroke:#181818;stroke-width:1.0;"/><line style="stroke:#181818;stroke-width:1.0;" x1="1271.5" x2="1530.5" y1="375.2969" y2="375.2969"/><text fill="#000000" font-family="sans-serif" font-size="13" font-weight="bold" lengthAdjust="spacing" textLength="9" x="1278.5" y="370.231">8</text><text fill="#000000" font-family="sans-serif" font-size="13" lengthAdjust="spacing" textLength="49" x="1291.5" y="370.231">request</text><polygon fill="#181818" points="1282.5,400.4297,1272.5,404.4297,1282.5,408.4297,1278.5,404.4297" style="stroke:#181818;stroke-width:1.0;"/><line style="stroke:#181818;stroke-width:1.0;stroke-dasharray:2.0,2.0;" x1="1276.5" x2="1535.5" y1="404.4297" y2="404.4297"/><text fill="#000000" font-family="sans-serif" font-size="13" font-weight="bold" lengthAdjust="spacing" textLength="9" x="1288.5" y="399.3638">9</text><text fill="#000000" font-family="sans-serif" font-size="13" lengthAdjust="spacing" textLength="49" x="1301.5" y="399.3638">percent</text><polygon fill="#181818" points="549.5,429.5625,539.5,433.5625,549.5,437.5625,545.5,433.5625" style="stroke:#181818;stroke-width:1.0;"/><line style="stroke:#181818;stroke-width:1.0;stroke-dasharray:2.0,2.0;" x1="543.5" x2="1265.5" y1="433.5625" y2="433.5625"/><text fill="#000000" font-family="sans-serif" font-size="13" font-weight="bold" lengthAdjust="spacing" textLength="18" x="555.5" y="428.4966">10</text><text fill="#000000" font-family="sans-serif" font-size="13" lengthAdjust="spacing" textLength="103" x="577.5" y="428.4966">discountPercent</text><line style="stroke:#181818;stroke-width:1.0;" x1="538.5" x2="580.5" y1="462.6953" y2="462.6953"/><line style="stroke:#181818;stroke-width:1.0;" x1="580.5" x2="580.5" y1="462.6953" y2="475.6953"/><line style="stroke:#181818;stroke-width:1.0;" x1="539.5" x2="580.5" y1="475.6953" y2="475.6953"/><polygon fill="#181818" points="549.5,471.6953,539.5,475.6953,549.5,479.6953,545.5,475.6953" style="stroke:#181818;stroke-width:1.0;"/><text fill="#000000" font-family="sans-serif" font-size="13" font-weight="bold" lengthAdjust="spacing" textLength="18" x="545.5" y="457.6294">11</text><text fill="#000000" font-family="sans-serif" font-size="13" lengthAdjust="spacing" textLength="92" x="567.5" y="457.6294">apply discount</text><polygon fill="#181818" points="1025.5,500.8281,1035.5,504.8281,1025.5,508.8281,1029.5,504.8281" style="stroke:#181818;stroke-width:1.0;"/><line style="stroke:#181818;stroke-width:1.0;" x1="538.5" x2="1031.5" y1="504.8281" y2="504.8281"/><text fill="#000000" font-family="sans-serif" font-size="13" font-weight="bold" lengthAdjust="spacing" textLength="18" x="545.5" y="499.7622">12</text><text fill="#000000" font-family="sans-serif" font-size="13" lengthAdjust="spacing" textLength="223" x="567.5" y="499.7622">convertToUSD(discountedAmount)</text><polygon fill="#181818" points="549.5,529.9609,539.5,533.9609,549.5,537.9609,545.5,533.9609" style="stroke:#181818;stroke-width:1.0;"/><line style="stroke:#181818;stroke-width:1.0;stroke-dasharray:2.0,2.0;" x1="543.5" x2="1041.5" y1="533.9609" y2="533.9609"/><text fill="#000000" font-family="sans-serif" font-size="13" font-weight="bold" lengthAdjust="spacing" textLength="18" x="555.5" y="528.895">13</text><text fill="#000000" font-family="sans-serif" font-size="13" lengthAdjust="spacing" textLength="132" x="577.5" y="528.895">chargedAmountUSD</text><polygon fill="#181818" points="1134.5,559.0938,1144.5,563.0938,1134.5,567.0938,1138.5,563.0938" style="stroke:#181818;stroke-width:1.0;"/><line style="stroke:#181818;stroke-width:1.0;" x1="538.5" x2="1140.5" y1="563.0938" y2="563.0938"/><text fill="#000000" font-family="sans-serif" font-size="13" font-weight="bold" lengthAdjust="spacing" textLength="18" x="545.5" y="558.0278">14</text><text fill="#000000" font-family="sans-serif" font-size="13" lengthAdjust="spacing" textLength="186" x="567.5" y="558.0278">assess(chargedAmountUSD)</text><polygon fill="#181818" points="549.5,588.2266,539.5,592.2266,549.5,596.2266,545.5,592.2266" style="stroke:#181818;stroke-width:1.0;"/><line style="stroke:#181818;stroke-width:1.0;stroke-dasharray:2.0,2.0;" x1="543.5" x2="1150.5" y1="592.2266" y2="592.2266"/><text fill="#000000" font-family="sans-serif" font-size="13" font-weight="bold" lengthAdjust="spacing" textLength="18" x="555.5" y="587.1606">15</text><text fill="#000000" font-family="sans-serif" font-size="13" lengthAdjust="spacing" textLength="38" x="577.5" y="587.1606">allow?</text><polygon fill="#181818" points="300.5,641.4922,290.5,645.4922,300.5,649.4922,296.5,645.4922" style="stroke:#181818;stroke-width:1.0;"/><line style="stroke:#181818;stroke-width:1.0;stroke-dasharray:2.0,2.0;" x1="294.5" x2="527.5" y1="645.4922" y2="645.4922"/><text fill="#000000" font-family="sans-serif" font-size="13" font-weight="bold" lengthAdjust="spacing" textLength="18" x="306.5" y="640.4263">16</text><text fill="#000000" font-family="sans-serif" font-size="13" lengthAdjust="spacing" textLength="153" x="328.5" y="640.4263">OrderRejectedException</text><polygon fill="#181818" points="83.5,670.625,73.5,674.625,83.5,678.625,79.5,674.625" style="stroke:#181818;stroke-width:1.0;"/><line style="stroke:#181818;stroke-width:1.0;stroke-dasharray:2.0,2.0;" x1="77.5" x2="288.5" y1="674.625" y2="674.625"/><text fill="#000000" font-family="sans-serif" font-size="13" font-weight="bold" lengthAdjust="spacing" textLength="18" x="89.5" y="669.5591">17</text><text fill="#000000" font-family="sans-serif" font-size="13" lengthAdjust="spacing" textLength="120" x="111.5" y="669.5591">422 Order rejected</text><path d="M20,704.4297 L84,704.4297 L84,711.5625 L74,721.5625 L20,721.5625 L20,704.4297 " fill="#EEEEEE" style="stroke:#000000;stroke-width:1.5;"/><rect fill="none" height="636.0703" style="stroke:#000000;stroke-width:1.5;" width="1844" x="20" y="704.4297"/><text fill="#000000" font-family="sans-serif" font-size="13" font-weight="bold" lengthAdjust="spacing" textLength="19" x="35" y="717.4966">alt</text><text fill="#000000" font-family="sans-serif" font-size="11" font-weight="bold" lengthAdjust="spacing" textLength="251" x="99" y="716.6401">[Free order (chargedAmountUSD == 0)]</text><line style="stroke:#181818;stroke-width:1.0;" x1="538.5" x2="580.5" y1="742.6953" y2="742.6953"/><line style="stroke:#181818;stroke-width:1.0;" x1="580.5" x2="580.5" y1="742.6953" y2="755.6953"/><line style="stroke:#181818;stroke-width:1.0;" x1="539.5" x2="580.5" y1="755.6953" y2="755.6953"/><polygon fill="#181818" points="549.5,751.6953,539.5,755.6953,549.5,759.6953,545.5,755.6953" style="stroke:#181818;stroke-width:1.0;"/><text fill="#000000" font-family="sans-serif" font-size="13" font-weight="bold" lengthAdjust="spacing" textLength="18" x="545.5" y="737.6294">18</text><text fill="#000000" font-family="sans-serif" font-size="13" lengthAdjust="spacing" textLength="241" x="567.5" y="737.6294">transactionId = free_* (skip payment)</text><line style="stroke:#000000;stroke-width:1.0;stroke-dasharray:2.0,2.0;" x1="20" x2="1864" y1="764.6953" y2="764.6953"/><text fill="#000000" font-family="sans-serif" font-size="11" font-weight="bold" lengthAdjust="spacing" textLength="76" x="25" y="774.9058">[Paid order]</text><path d="M30,785.5 L107,785.5 L107,792.6328 L97,802.6328 L30,802.6328 L30,785.5 " fill="#EEEEEE" style="stroke:#000000;stroke-width:1.5;"/><rect fill="none" height="489.7344" style="stroke:#000000;stroke-width:1.5;" width="1824" x="30" y="785.5"/><text fill="#000000" font-family="sans-serif" font-size="13" font-weight="bold" lengthAdjust="spacing" textLength="32" x="45" y="798.5669">loop</text><text fill="#000000" font-family="sans-serif" font-size="11" font-weight="bold" lengthAdjust="spacing" textLength="153" x="122" y="797.7104">[Retry up to 3 attempts]</text><polygon fill="#181818" points="1380.5,819.7656,1390.5,823.7656,1380.5,827.7656,1384.5,823.7656" style="stroke:#181818;stroke-width:1.0;"/><line style="stroke:#181818;stroke-width:1.0;" x1="538.5" x2="1386.5" y1="823.7656" y2="823.7656"/><text fill="#000000" font-family="sans-serif" font-size="13" font-weight="bold" lengthAdjust="spacing" textLength="18" x="545.5" y="818.6997">19</text><text fill="#000000" font-family="sans-serif" font-size="13" lengthAdjust="spacing" textLength="223" x="567.5" y="818.6997">charge(chargedAmountUSD, USD)</text><polygon fill="#181818" points="1661,848.8984,1671,852.8984,1661,856.8984,1665,852.8984" style="stroke:#181818;stroke-width:1.0;"/><line style="stroke:#181818;stroke-width:1.0;" x1="1402.5" x2="1667" y1="852.8984" y2="852.8984"/><text fill="#000000" font-family="sans-serif" font-size="13" font-weight="bold" lengthAdjust="spacing" textLength="18" x="1409.5" y="847.8325">20</text><text fill="#000000" font-family="sans-serif" font-size="13" lengthAdjust="spacing" textLength="44" x="1431.5" y="847.8325">charge</text><path d="M50,867.8984 L114,867.8984 L114,875.0313 L104,885.0313 L50,885.0313 L50,867.8984 " fill="#EEEEEE" style="stroke:#000000;stroke-width:1.5;"/><rect fill="none" height="179.6016" style="stroke:#000000;stroke-width:1.5;" width="1697" x="50" y="867.8984"/><text fill="#000000" font-family="sans-serif" font-size="13" font-weight="bold" lengthAdjust="spacing" textLength="19" x="65" y="880.9653">alt</text><text fill="#000000" font-family="sans-serif" font-size="11" font-weight="bold" lengthAdjust="spacing" textLength="278" x="129" y="880.1089">[TransientPaymentException (attempt &lt; 3)]</text><polygon fill="#181818" points="1413.5,902.1641,1403.5,906.1641,1413.5,910.1641,1409.5,906.1641" style="stroke:#181818;stroke-width:1.0;"/><line style="stroke:#181818;stroke-width:1.0;stroke-dasharray:2.0,2.0;" x1="1407.5" x2="1672" y1="906.1641" y2="906.1641"/><text fill="#000000" font-family="sans-serif" font-size="13" font-weight="bold" lengthAdjust="spacing" textLength="18" x="1419.5" y="901.0981">21</text><text fill="#000000" font-family="sans-serif" font-size="13" lengthAdjust="spacing" textLength="92" x="1441.5" y="901.0981">transient error</text><polygon fill="#181818" points="549.5,931.2969,539.5,935.2969,549.5,939.2969,545.5,935.2969" style="stroke:#181818;stroke-width:1.0;"/><line style="stroke:#181818;stroke-width:1.0;stroke-dasharray:2.0,2.0;" x1="543.5" x2="1391.5" y1="935.2969" y2="935.2969"/><text fill="#000000" font-family="sans-serif" font-size="13" font-weight="bold" lengthAdjust="spacing" textLength="18" x="555.5" y="930.231">22</text><text fill="#000000" font-family="sans-serif" font-size="13" lengthAdjust="spacing" textLength="100" x="577.5" y="930.231">transient failure</text><line style="stroke:#000000;stroke-width:1.0;stroke-dasharray:2.0,2.0;" x1="50" x2="1747" y1="944.2969" y2="944.2969"/><text fill="#000000" font-family="sans-serif" font-size="11" font-weight="bold" lengthAdjust="spacing" textLength="62" x="55" y="954.5073">[Success]</text><polygon fill="#181818" points="1413.5,975.2344,1403.5,979.2344,1413.5,983.2344,1409.5,979.2344" style="stroke:#181818;stroke-width:1.0;"/><line style="stroke:#181818;stroke-width:1.0;stroke-dasharray:2.0,2.0;" x1="1407.5" x2="1672" y1="979.2344" y2="979.2344"/><text fill="#000000" font-family="sans-serif" font-size="13" font-weight="bold" lengthAdjust="spacing" textLength="18" x="1419.5" y="974.1685">23</text><text fill="#000000" font-family="sans-serif" font-size="13" lengthAdjust="spacing" textLength="83" x="1441.5" y="974.1685">transactionId</text><polygon fill="#181818" points="549.5,1004.3672,539.5,1008.3672,549.5,1012.3672,545.5,1008.3672" style="stroke:#181818;stroke-width:1.0;"/><line style="stroke:#181818;stroke-width:1.0;stroke-dasharray:2.0,2.0;" x1="543.5" x2="1391.5" y1="1008.3672" y2="1008.3672"/><text fill="#000000" font-family="sans-serif" font-size="13" font-weight="bold" lengthAdjust="spacing" textLength="18" x="555.5" y="1003.3013">24</text><text fill="#000000" font-family="sans-serif" font-size="13" lengthAdjust="spacing" textLength="83" x="577.5" y="1003.3013">transactionId</text><path d="M60,1023.3672 L148,1023.3672 L148,1030.5 L138,1040.5 L60,1040.5 L60,1023.3672 " fill="#EEEEEE" style="stroke:#000000;stroke-width:1.5;"/><rect fill="none" height="17.1328" style="stroke:#000000;stroke-width:1.5;" width="93" x="60" y="1023.3672"/><text fill="#000000" font-family="sans-serif" font-size="13" font-weight="bold" lengthAdjust="spacing" textLength="43" x="75" y="1036.4341">break</text><path d="M40,1061.5 L104,1061.5 L104,1068.6328 L94,1078.6328 L40,1078.6328 L40,1061.5 " fill="#EEEEEE" style="stroke:#000000;stroke-width:1.5;"/><rect fill="none" height="206.7344" style="stroke:#000000;stroke-width:1.5;" width="1804" x="40" y="1061.5"/><text fill="#000000" font-family="sans-serif" font-size="13" font-weight="bold" lengthAdjust="spacing" textLength="19" x="55" y="1074.5669">alt</text><text fill="#000000" font-family="sans-serif" font-size="11" font-weight="bold" lengthAdjust="spacing" textLength="307" x="119" y="1073.7104">[TransientPaymentException (after 3 attempts)]</text><polygon fill="#181818" points="300.5,1095.7656,290.5,1099.7656,300.5,1103.7656,296.5,1099.7656" style="stroke:#181818;stroke-width:1.0;"/><line style="stroke:#181818;stroke-width:1.0;stroke-dasharray:2.0,2.0;" x1="294.5" x2="527.5" y1="1099.7656" y2="1099.7656"/><text fill="#000000" font-family="sans-serif" font-size="13" font-weight="bold" lengthAdjust="spacing" textLength="18" x="306.5" y="1094.6997">25</text><text fill="#000000" font-family="sans-serif" font-size="13" lengthAdjust="spacing" textLength="178" x="328.5" y="1094.6997">TransientPaymentException</text><polygon fill="#181818" points="83.5,1124.8984,73.5,1128.8984,83.5,1132.8984,79.5,1128.8984" style="stroke:#181818;stroke-width:1.0;"/><line style="stroke:#181818;stroke-width:1.0;stroke-dasharray:2.0,2.0;" x1="77.5" x2="288.5" y1="1128.8984" y2="1128.8984"/><text fill="#000000" font-family="sans-serif" font-size="13" font-weight="bold" lengthAdjust="spacing" textLength="18" x="89.5" y="1123.8325">26</text><text fill="#000000" font-family="sans-serif" font-size="13" lengthAdjust="spacing" textLength="123" x="111.5" y="1123.8325">503 Payment failed</text><line style="stroke:#000000;stroke-width:1.0;stroke-dasharray:2.0,2.0;" x1="40" x2="1844" y1="1137.8984" y2="1137.8984"/><text fill="#000000" font-family="sans-serif" font-size="11" font-weight="bold" lengthAdjust="spacing" textLength="138" x="45" y="1148.1089">[Payment succeeded]</text><polygon fill="#181818" points="903.5,1168.8359,913.5,1172.8359,903.5,1176.8359,907.5,1172.8359" style="stroke:#181818;stroke-width:1.0;"/><line style="stroke:#181818;stroke-width:1.0;" x1="538.5" x2="909.5" y1="1172.8359" y2="1172.8359"/><text fill="#000000" font-family="sans-serif" font-size="13" font-weight="bold" lengthAdjust="spacing" textLength="18" x="545.5" y="1167.77">27</text><text fill="#000000" font-family="sans-serif" font-size="13" lengthAdjust="spacing" textLength="74" x="567.5" y="1167.77">save(order)</text><polygon fill="#181818" points="1778.5,1197.9688,1788.5,1201.9688,1778.5,1205.9688,1782.5,1201.9688" style="stroke:#181818;stroke-width:1.0;"/><line style="stroke:#181818;stroke-width:1.0;" x1="925.5" x2="1784.5" y1="1201.9688" y2="1201.9688"/><text fill="#000000" font-family="sans-serif" font-size="13" font-weight="bold" lengthAdjust="spacing" textLength="18" x="932.5" y="1196.9028">28</text><text fill="#000000" font-family="sans-serif" font-size="13" lengthAdjust="spacing" textLength="30" x="954.5" y="1196.9028">write</text><polygon fill="#181818" points="936.5,1227.1016,926.5,1231.1016,936.5,1235.1016,932.5,1231.1016" style="stroke:#181818;stroke-width:1.0;"/><line style="stroke:#181818;stroke-width:1.0;stroke-dasharray:2.0,2.0;" x1="930.5" x2="1789.5" y1="1231.1016" y2="1231.1016"/><text fill="#000000" font-family="sans-serif" font-size="13" font-weight="bold" lengthAdjust="spacing" textLength="18" x="942.5" y="1226.0356">29</text><text fill="#000000" font-family="sans-serif" font-size="13" lengthAdjust="spacing" textLength="41" x="964.5" y="1226.0356">stored</text><polygon fill="#181818" points="549.5,1256.2344,539.5,1260.2344,549.5,1264.2344,545.5,1260.2344" style="stroke:#181818;stroke-width:1.0;"/><line style="stroke:#181818;stroke-width:1.0;stroke-dasharray:2.0,2.0;" x1="543.5" x2="919.5" y1="1260.2344" y2="1260.2344"/><text fill="#000000" font-family="sans-serif" font-size="13" font-weight="bold" lengthAdjust="spacing" textLength="18" x="555.5" y="1255.1685">30</text><text fill="#000000" font-family="sans-serif" font-size="13" lengthAdjust="spacing" textLength="15" x="577.5" y="1255.1685">ok</text><polygon fill="#181818" points="300.5,1299.3672,290.5,1303.3672,300.5,1307.3672,296.5,1303.3672" style="stroke:#181818;stroke-width:1.0;"/><line style="stroke:#181818;stroke-width:1.0;stroke-dasharray:2.0,2.0;" x1="294.5" x2="527.5" y1="1303.3672" y2="1303.3672"/><text fill="#000000" font-family="sans-serif" font-size="13" font-weight="bold" lengthAdjust="spacing" textLength="18" x="306.5" y="1298.3013">31</text><text fill="#000000" font-family="sans-serif" font-size="13" lengthAdjust="spacing" textLength="189" x="328.5" y="1298.3013">OrderCreated (domain event)</text><polygon fill="#181818" points="83.5,1328.5,73.5,1332.5,83.5,1336.5,79.5,1332.5" style="stroke:#181818;stroke-width:1.0;"/><line style="stroke:#181818;stroke-width:1.0;stroke-dasharray:2.0,2.0;" x1="77.5" x2="288.5" y1="1332.5" y2="1332.5"/><text fill="#000000" font-family="sans-serif" font-size="13" font-weight="bold" lengthAdjust="spacing" textLength="18" x="89.5" y="1327.4341">32</text><text fill="#000000" font-family="sans-serif" font-size="13" lengthAdjust="spacing" textLength="79" x="111.5" y="1327.4341">201 Created</text><line style="stroke:#A80036;stroke-width:2.0;" x1="524.5" x2="542.5" y1="1347.5" y2="1365.5"/><line style="stroke:#A80036;stroke-width:2.0;" x1="524.5" x2="542.5" y1="1365.5" y2="1347.5"/><path d="M412,1370.5 L412,1470.5 L654,1470.5 L654,1380.5 L644,1370.5 L412,1370.5 " fill="#FEFFDD" style="stroke:#181818;stroke-width:0.5;"/><path d="M644,1370.5 L644,1380.5 L654,1380.5 L644,1370.5 " fill="#FEFFDD" style="stroke:#181818;stroke-width:0.5;"/><text fill="#000000" font-family="sans-serif" font-size="13" lengthAdjust="spacing" textLength="131" x="418" y="1387.5669">OrderCreated event:</text><text fill="#000000" font-family="sans-serif" font-size="13" lengthAdjust="spacing" textLength="221" x="418" y="1402.6997">- orderId, original amount/currency</text><text fill="#000000" font-family="sans-serif" font-size="13" lengthAdjust="spacing" textLength="141" x="418" y="1417.8325">- chargedAmountUSD</text><text fill="#000000" font-family="sans-serif" font-size="13" lengthAdjust="spacing" textLength="163" x="418" y="1432.9653">- discountPercent (0-100)</text><text fill="#000000" font-family="sans-serif" font-size="13" lengthAdjust="spacing" textLength="219" x="418" y="1448.0981">- transactionId (free_* or gateway)</text><text fill="#000000" font-family="sans-serif" font-size="13" lengthAdjust="spacing" textLength="153" x="418" y="1463.231">- occurredAt timestamp</text><a href="https://mundiir.github.io/meetup-2025-orders-service/c4-component.svg" target="_top" title="https://mundiir.github.io/meetup-2025-orders-service/c4-component.svg" xlink:actuate="onRequest" xlink:href="https://mundiir.github.io/meetup-2025-orders-service/c4-component.svg" xlink:show="new" xlink:title="https://mundiir.github.io/meetup-2025-orders-service/c4-component.svg" xlink:type="simple"><text fill="#0000FF" font-family="sans-serif" font-size="10" lengthAdjust="spacing" text-decoration="underline" textLength="114" x="884.5" y="1712.6572">Back to C4 Component</text></a><rect fill="#DDDDDD" height="111.7813" id="_legend" rx="7.5" ry="7.5" style="stroke:#000000;stroke-width:1.0;" width="332" x="12" y="1578.5938"/><text fill="#000000" font-family="sans-serif" font-size="14" lengthAdjust="spacing" textLength="36" x="21" y="1598.5889">Layer</text><text fill="#000000" font-family="sans-serif" font-size="14" lengthAdjust="spacing" textLength="51" x="284" y="1598.5889">Sample</text><text fill="#000000" font-family="sans-serif" font-size="14" lengthAdjust="spacing" textLength="88" x="21" y="1614.8857">Presentation</text><rect fill="#C7F9CC" height="16.2969" style="stroke:none;stroke-width:1.0;" width="59" x="280" y="1601.8906"/><text fill="#000000" font-family="sans-serif" font-size="14" lengthAdjust="spacing" textLength="4" x="280" y="1614.8857">&#160;</text><text fill="#000000" font-family="sans-serif" font-size="14" lengthAdjust="spacing" textLength="75" x="21" y="1631.1826">Application</text><rect fill="#FFF3B0" height="16.2969" style="stroke:none;stroke-width:1.0;" width="59" x="280" y="1618.1875"/><text fill="#000000" font-family="sans-serif" font-size="14" lengthAdjust="spacing" textLength="4" x="280" y="1631.1826">&#160;</text><text fill="#000000" font-family="sans-serif" font-size="14" lengthAdjust="spacing" textLength="53" x="21" y="1647.4795">Domain</text><rect fill="#E8EAED" height="16.2969" style="stroke:none;stroke-width:1.0;" width="59" x="280" y="1634.4844"/><text fill="#000000" font-family="sans-serif" font-size="14" lengthAdjust="spacing" textLength="4" x="280" y="1647.4795">&#160;</text><text fill="#000000" font-family="sans-serif" font-size="14" lengthAdjust="spacing" textLength="255" x="21" y="1663.7764">Infrastructure (Adapters/Persistence)</text><rect fill="#FFD6A5" height="16.2969" style="stroke:none;stroke-width:1.0;" width="59" x="280" y="1650.7813"/><text fill="#000000" font-family="sans-serif" font-size="14" lengthAdjust="spacing" textLength="4" x="280" y="1663.7764">&#160;</text><text fill="#000000" font-family="sans-serif" font-size="14" lengthAdjust="spacing" textLength="151" x="21" y="1680.0732">External Actor/System</text><rect fill="#AEE3FF" height="16.2969" style="stroke:none;stroke-width:1.0;" width="59" x="280" y="1667.0781"/><text fill="#000000" font-family="sans-serif" font-size="14" lengthAdjust="spacing" textLength="4" x="280" y="1680.0732">&#160;</text><line style="stroke:#000000;stroke-width:1.0;" x1="17" x2="339" y1="1585.5938" y2="1585.5938"/><line style="stroke:#000000;stroke-width:1.0;" x1="17" x2="339" y1="1601.8906" y2="1601.8906"/><line style="stroke:#000000;stroke-width:1.0;" x1="17" x2="339" y1="1618.1875" y2="1618.1875"/><line style="stroke:#000000;stroke-width:1.0;" x1="17" x2="339" y1="1634.4844" y2="1634.4844"/><line style="stroke:#000000;stroke-width:1.0;" x1="17" x2="339" y1="1650.7813" y2="1650.7813"/><line style="stroke:#000000;stroke-width:1.0;" x1="17" x2="339" y1="1667.0781" y2="1667.0781"/><line style="stroke:#000000;stroke-width:1.0;" x1="17" x2="339" y1="1683.375" y2="1683.375"/><line style="stroke:#000000;stroke-width:1.0;" x1="17" x2="17" y1="1585.5938" y2="1683.375"/><line style="stroke:#000000;stroke-width:1.0;" x1="280" x2="280" y1="1585.5938" y2="1683.375"/><line style="stroke:#000000;stroke-width:1.0;" x1="339" x2="339" y1="1585.5938" y2="1683.375"/><!--SRC=[dLVRZjis47tNLmnsqLPkLsjdBxqusHIEByq21MAiDtq9We8hqZPhILH8oci3-v1VA90lp9TqI4gsh8lJ90_1MZDpvio5m-4FC9ICQ0Pl96KIFd_y13Fs8MD9oC17IGIXe0mI4ZFr758XjOAVG3-AO2dIvoYCX6GK8hPW2Uru9DCYoU879ZsFX5f864QS9HfE1-FnvMJYUGzY0oVMcK9FSir3TWAd8_lF0qY9r3paAK4RgpKKYPOYYf3SwV2NoM_3OKNByRUwhqb2hU9aChbyrMk2WzFnh-F1kD7L7Kk5uaXwQn16Fm-kArgJ3R9PCwcTZmQDEwvMmoKBLwqQKobYaGVUfaAsCURi3mphaUovO881i-TvPTqJYmUNadx- -AyHR4-0AETbCBtTvVtGnZdOvzzOk6-jDYEY2SmmEKxT_BI_TlIylDB1oshX-Z1zCxk7hd1LzyiTr_6gLKRxUadxCDwmCDFCT1LV6_Ew4bAezq8Bt5yaujJ0X9cKsErR-1v8BB94UoJIy3PHMMgwdT5XhZ3UX2pLN2HOhIO_JN5_0QOMkY5hizY7grwlRBxZwR58CKT__wsPKKwe3w4L-Yw-ivrPnxHKMzBAVTg71TCZha9ZFsKoD7NsUy6pNk-xphuYPHFleCyBFEokFaWpNvJsTZqQrDobpaS5fAMKz92OHrape__V72HDe-qEjor3fMc0ANP_tektiv5VM38wi2alvQXav9N7ILjmuPB8HO63sENeobWj74lp2CDIYYdbLo5Bx4hgNdcKjR4ZKIGUVozpAYFOavHFrdzOYEdubZFK2d3qz5nSvFDUvfRkt0n2Ou-_00ovYMGCx5Y2MbhWvWPw7LHiErnD2T6I9CeaGoIt56vWZWx-_X5yjU8fpdWxOWsc9JCbU8QjT-ib4YA5EwRn-ibIq3ZKWMZDubGhAs_ZSNXT52rJY-SCRAqTqlw471Zdqie5jFTXpwy3Be0mY_ScQ9FtN6jN9F3p0E05N1QkeNpL10tyTG47J4eXgsOxLiTAOCtdX4UPB9ZQbCyoR02blefAKSvl8b8pVa3DLK4fARwNPrQz8eNUbv8zDvDatpMT8stJTD9QeNESOmVkkdTPCBTvPuvntkVkkpB9PvJHe-rSMSNweCYQ-S8j2vNkhUYMUPQMEGJThIjzU9HS5psntsA2Hiz6HDjGMyekLlMQDl5qHNN_VzKiTCeKV2fYmXDWwtoe7AlFHUzPxeMwMv_Y5Ip5jd6DIWHo5dYpD4aFE5ZVVIzmO-oMdk4VVC4JV3UuRQExsr62-bqMLE_kVAdeeEHmalhv8CK7nS8T3ACZGejE1neqnmUA9d5grsGJWEUvHmc-JUOQi_C4Vv8jXlG4CrIB63pPZrF957eczWWzmOlyaV4o5mzm5U3XNkfU5eLqv2fW1EvPKGXkaxaacE0ir3Y1m1zGWjUEL5qCL76bpVkgamEQxRcm6szGosHlO1vFtTaMLMEhvtPoeyTC7HQsY7CXp95_zswfTQhwtMwS9PHpURxWUfazd7FHZHdJMHfSz2wk0xU01yejHDtmAWX5d8e4upzNwmMy8k7AN3p3AnWMWlVl_mC0]--></g></svg>